<?xml version="1.0" encoding="UTF-8"?>
<svg width="20px" height="20px" viewBox="0 0 20 20" version="1.1" xmlns="http://www.w3.org/2000/svg" xmlns:xlink="http://www.w3.org/1999/xlink">
    <!-- Generator: Sketch 60.1 (88133) - https://sketch.com -->
    <title>Social / github</title>
    <desc>Created with Sketch.</desc>
    <g id="Social-/-github" stroke="none" stroke-width="1" fill="none" fill-rule="evenodd">
        <path d="M10,1.24994704 C5.70932058,1.25057743 2.05207016,4.36225909 1.36431581,8.59745969 C0.676561459,12.8326603 3.16123402,16.941729 7.23125,18.3 C7.66875,18.38125 7.85625,18.1125 7.85625,17.88125 L7.85625,16.39375 C5.425,16.91875 4.9125,15.21875 4.9125,15.21875 C4.74153226,14.6830194 4.38170006,14.2276762 3.9,13.9375 C3.10625,13.4 3.9625,13.40625 3.9625,13.40625 C4.52434501,13.4856186 5.01800661,13.820109 5.3,14.3125 C5.80411439,15.216671 6.94560499,15.5412125 7.85,15.0375 C7.88528796,14.5940442 8.0807927,14.1785967 8.4,13.86875 C6.4625,13.64375 4.41875,12.89375 4.41875,9.54375 C4.40457994,8.67368395 4.72701596,7.83176767 5.31875,7.19375 C5.05091317,6.44012169 5.08222921,5.61248369 5.40625,4.88125 C5.40625,4.88125 6.1375,4.64375 7.8125,5.775 C9.24467116,5.38434329 10.7553288,5.38434329 12.1875,5.775 C13.85625,4.64375 14.5875,4.88125 14.5875,4.88125 C14.9115208,5.61248369 14.9428368,6.44012169 14.675,7.19375 C15.266734,7.83176767 15.5891701,8.67368395 15.575,9.54375 C15.575,12.90625 13.53125,13.64375 11.58125,13.8625 C12.0038784,14.2908727 12.220409,14.8812033 12.175,15.48125 L12.175,17.88125 C12.175,18.16875 12.33125,18.3875 12.8,18.3 C16.8757088,16.9399144 19.3608551,12.8218526 18.6645728,8.58199098 C17.9682905,4.34212938 14.2966283,1.23515633 10,1.24994704 Z" id="Fill" fill="#000000"></path>
    </g>
</svg>
