<?xml version="1.0" encoding="UTF-8"?>
<svg width="16px" height="16px" viewBox="0 0 16 16" version="1.1" xmlns="http://www.w3.org/2000/svg" xmlns:xlink="http://www.w3.org/1999/xlink">
    <!-- Generator: Sketch 60.1 (88133) - https://sketch.com -->
    <title>Social / github</title>
    <desc>Created with Sketch.</desc>
    <g id="Social-/-github" stroke="none" stroke-width="1" fill="none" fill-rule="evenodd">
        <path d="M8,0.999957631 C4.56745647,1.00046195 1.64165613,3.48980727 1.09145265,6.87796775 C0.541249167,10.2661282 2.52898722,13.5533832 5.785,14.64 C6.135,14.705 6.285,14.49 6.285,14.305 L6.285,13.115 C4.34,13.535 3.93,12.175 3.93,12.175 C3.79322581,11.7464156 3.50536005,11.382141 3.12,11.15 C2.485,10.72 3.17,10.725 3.17,10.725 C3.61947601,10.7884949 4.01440529,11.0560872 4.24,11.45 C4.64329152,12.1733368 5.55648399,12.43297 6.28,12.03 C6.30823037,11.6752354 6.46463416,11.3428773 6.72,11.095 C5.17,10.915 3.535,10.315 3.535,7.635 C3.52366395,6.93894716 3.78161277,6.26541414 4.255,5.755 C4.04073054,5.15209735 4.06578336,4.48998696 4.325,3.905 C4.325,3.905 4.91,3.715 6.25,4.62 C7.39573693,4.30747463 8.60426307,4.30747463 9.75,4.62 C11.085,3.715 11.67,3.905 11.67,3.905 C11.9292166,4.48998696 11.9542695,5.15209735 11.74,5.755 C12.2133872,6.26541414 12.4713361,6.93894716 12.46,7.635 C12.46,10.325 10.825,10.915 9.265,11.09 C9.60310276,11.4326982 9.77632718,11.9049627 9.74,12.385 L9.74,14.305 C9.74,14.535 9.865,14.71 10.24,14.64 C13.5005671,13.5519315 15.488684,10.2574821 14.9316582,6.86559278 C14.3746324,3.4737035 11.4373027,0.988125062 8,0.999957631 Z" id="Fill" fill="#000000"></path>
    </g>
</svg>
