<?xml version="1.0" encoding="UTF-8"?>
<svg width="20px" height="20px" viewBox="0 0 20 20" version="1.1" xmlns="http://www.w3.org/2000/svg" xmlns:xlink="http://www.w3.org/1999/xlink">
    <!-- Generator: Sketch 60.1 (88133) - https://sketch.com -->
    <title>Social / linkedin</title>
    <desc>Created with Sketch.</desc>
    <g id="Social-/-linkedin" stroke="none" stroke-width="1" fill="none" fill-rule="evenodd">
        <path d="M16.38125,2.49997949 L3.61875,2.49997949 C3.01390802,2.49636358 2.51697932,2.97663545 2.5,3.58125 L2.5,16.375 C2.51365958,16.9810727 3.01256383,17.4632539 3.61875,17.4563253 L16.38125,17.4563253 C16.9874362,17.4632539 17.4863404,16.9810727 17.5,16.375 L17.5,3.58125 C17.4830207,2.97663545 16.986092,2.49636358 16.38125,2.49997949 Z M6.94375,15.25625 L4.74375,15.25625 L4.74375,8.125 L6.94375,8.125 L6.94375,15.25625 Z M5.86875,7.13125 C5.16625969,7.13145496 4.59196834,6.57103538 4.575,5.86875 C4.56263507,5.52198323 4.69496564,5.18567958 4.94032261,4.94032261 C5.18567958,4.69496564 5.52198323,4.56263507 5.86875,4.575 C6.54675057,4.62220987 7.07263248,5.18598278 7.07263248,5.865625 C7.07263248,6.54526722 6.54675057,7.10904013 5.86875,7.15625 L5.86875,7.13125 Z M15.3,15.2125 L13.125,15.2125 L13.125,11.725 C13.125,10.89375 13.125,9.8125 11.9625,9.8125 C10.8,9.8125 10.625,10.725 10.625,11.64375 L10.625,15.175 L8.4,15.175 L8.4,8.125 L10.475,8.125 L10.475,9.0625 L10.51875,9.0625 C10.9523081,8.30955134 11.7695157,7.86117196 12.6375,7.9 C14.88125,7.9 15.3,9.4 15.3,11.30625 L15.3,15.2125 Z" id="Fill" fill="#000000"></path>
    </g>
</svg>
