<?xml version="1.0" encoding="utf-8"?>
<!-- Generator: Adobe Illustrator 22.0.1, SVG Export Plug-In . SVG Version: 6.00 Build 0)  -->
<svg version="1.1" id="Layer_1" xmlns="http://www.w3.org/2000/svg" xmlns:xlink="http://www.w3.org/1999/xlink" x="0px" y="0px"
	 viewBox="0 0 15 15" style="enable-background:new 0 0 15 15;" xml:space="preserve">
<g id="Layer_1-2">
	<g>
		<path d="M7.5,3C10,3,12,5,12,7.5S10,12,7.5,12S3,10,3,7.5S5,3,7.5,3 M7.5,1C3.9,1,1,3.9,1,7.5S3.9,14,7.5,14S14,11.1,14,7.5
			S11.1,1,7.5,1L7.5,1z"/>
	</g>
	<g>
		<path d="M7.5,3C10,3,12,5,12,7.5S10,12,7.5,12S3,10,3,7.5S5,3,7.5,3 M7.5,1C3.9,1,1,3.9,1,7.5S3.9,14,7.5,14S14,11.1,14,7.5
			S11.1,1,7.5,1L7.5,1z"/>
	</g>
</g>
</svg>
