<?xml version="1.0" encoding="UTF-8"?>
<svg width="412px" height="630px" viewBox="0 0 412 630" version="1.1" xmlns="http://www.w3.org/2000/svg" xmlns:xlink="http://www.w3.org/1999/xlink">
    <!-- Generator: Sketch 58 (84663) - https://sketch.com -->
    <title>Right Guy</title>
    <desc>Created with Sketch.</desc>
    <defs>
        <linearGradient x1="50%" y1="100%" x2="50%" y2="3.061617e-15%" id="linearGradient-1">
            <stop stop-color="#FF8127" offset="0%"></stop>
            <stop stop-color="#FFF101" offset="100%"></stop>
        </linearGradient>
    </defs>
    <g id="Design-V04" stroke="none" stroke-width="1" fill="none" fill-rule="evenodd">
        <g id="Project:-Alyn-Copy" transform="translate(-258.000000, -1533.000000)">
            <g id="Strategy" transform="translate(61.000000, 1016.000000)">
                <g id="The-Blob" transform="translate(172.000000, 519.000000)">
                    <g id="Right-Guy">
                        <path d="M350,607.5 C350,596.178795 318.656521,587 280,587 C241.339113,587 210,596.178795 210,607.5 C210,618.823277 241.339113,628 280,628 C318.656521,628 350,618.823277 350,607.5" id="Fill-9-Copy-3" fill-opacity="0.1" fill="#000000"></path>
                        <path d="M253.577698,187.527889 C176.090898,77.7046517 87.8037147,130.549694 12.1450978,18.0358978" id="Stroke-11" stroke="#3D4966" stroke-width="3.5" stroke-linecap="round" stroke-linejoin="round" transform="translate(132.861398, 102.781893) rotate(9.000000) translate(-132.861398, -102.781893) "></path>
                        <path d="M281.799009,605.489778 C278.676794,592.697006 276.309021,579.940719 274.316384,567.052216 C272.310498,554.180212 270.816478,541.233591 269.7637,528.249511 C268.666807,515.257222 268.103817,502.219154 268.096778,489.151778 C267.930902,476.084531 268.744522,463.008241 269.769928,449.927656 C270.028485,446.658538 273.070428,444.199226 276.564633,444.431343 C280.063248,444.667579 282.690564,447.505635 282.432007,450.774753 C282.427548,450.832467 282.423082,450.898426 282.414205,450.964389 L282.39199,451.154028 C280.90366,463.806281 279.605001,476.520213 279.272536,489.307556 C278.776832,502.082666 278.823784,514.898556 279.404607,527.709888 C279.936899,540.517138 280.9104,553.32815 282.386922,566.089286 C283.850222,578.833944 285.723798,591.6401 288.255033,604.132433 L288.272612,604.218985 C288.615395,605.896442 287.431635,607.513311 285.640055,607.836303 C283.88819,608.151018 282.190379,607.101241 281.799009,605.489778" id="Fill-13" fill="#3D4966" transform="translate(278.203465, 526.154109) rotate(-11.000000) translate(-278.203465, -526.154109) "></path>
                        <path d="M221.581233,605.587509 C218.503004,592.751738 216.166151,579.953185 214.197819,567.022304 C212.21648,554.107963 210.738063,541.119189 209.693199,528.093198 C208.60498,515.058936 208.041361,501.979186 208.024018,488.87049 C207.850597,475.761794 208.639664,462.644827 209.636837,449.523725 C209.888298,446.244483 212.875481,443.779883 216.309224,444.015592 C219.747302,444.255435 222.331281,447.104612 222.07982,450.383854 C222.075484,450.441747 222.071149,450.507911 222.062478,450.574075 L222.0408,450.764296 C220.588396,463.455333 219.32242,476.208399 219.005926,489.035899 C218.529017,501.850994 218.585379,514.707441 219.166341,527.559752 C219.699612,540.407929 220.666436,553.26024 222.127511,566.062929 C223.575579,578.849077 225.426852,591.697253 227.92412,604.231152 L227.941462,604.317992 C228.279633,606.001032 227.11771,607.622045 225.357483,607.944593 C223.636276,608.258871 221.967096,607.204386 221.581233,605.587509" id="Fill-15" fill="#3D4966"></path>
                        <path d="M257.09036,112.055882 C206.584038,107.413372 87.7257646,393.364015 180.198559,474.29801 C215.423972,505.127979 287.543352,493.251337 317.824731,457.463527 C332.471866,440.146706 333.003674,414.858376 308.140615,287.874096 C283.40256,161.505659 274.060864,113.614869 257.09036,112.055882 Z" id="Fill-17" fill="url(#linearGradient-1)"></path>
                        <path d="M245.092268,44.2050431 C251.053805,29.3451826 267.935852,22.132744 282.796196,28.0899449 C297.656541,34.0554311 304.869214,50.9327859 298.907677,65.7967891 C292.946139,80.6566496 276.068235,87.8690882 261.20789,81.9077446 C246.343403,75.9422584 239.13073,59.0649036 245.092268,44.2050431" id="Fill-19" fill="#3D4966"></path>
                        <path d="M262.518004,207.028289 C262.518004,207.028289 305.22526,317.318251 425.24676,332.442288" id="Stroke-32" stroke="#3D4966" stroke-width="3.5" stroke-linecap="round" stroke-linejoin="round" transform="translate(343.882382, 269.735289) rotate(-10.000000) translate(-343.882382, -269.735289) "></path>
                    </g>
                </g>
            </g>
        </g>
    </g>
</svg>
