<?xml version="1.0" encoding="UTF-8"?>
<svg width="883px" height="258px" viewBox="0 0 883 258" version="1.1" xmlns="http://www.w3.org/2000/svg" xmlns:xlink="http://www.w3.org/1999/xlink">
    <!-- Generator: Sketch 58 (84663) - https://sketch.com -->
    <title>Icons</title>
    <desc>Created with Sketch.</desc>
    <defs>
        <linearGradient x1="50%" y1="100%" x2="50%" y2="3.061617e-15%" id="linearGradient-1">
            <stop stop-color="#FF8127" offset="0%"></stop>
            <stop stop-color="#FFF101" offset="100%"></stop>
        </linearGradient>
        <path d="M42.7391304,17.6086957 L81.6956522,17.6086957 C83.9047912,17.6086957 85.6956522,19.3995567 85.6956522,21.6086957 L85.6956522,74.6521739 C85.6956522,76.8613129 83.9047912,78.6521739 81.6956522,78.6521739 L42.7391304,78.6521739 C40.5299914,78.6521739 38.7391304,76.8613129 38.7391304,74.6521739 L38.7391304,21.6086957 C38.7391304,19.3995567 40.5299914,17.6086957 42.7391304,17.6086957 Z" id="path-2"></path>
        <mask id="mask-3" maskContentUnits="userSpaceOnUse" maskUnits="objectBoundingBox" x="0" y="0" width="46.9565217" height="61.0434783" fill="white">
            <use xlink:href="#path-2"></use>
        </mask>
        <linearGradient x1="20.4142012%" y1="100%" x2="79.5857988%" y2="0%" id="linearGradient-4">
            <stop stop-color="#1B529B" offset="0%"></stop>
            <stop stop-color="#3D83DF" offset="100%"></stop>
        </linearGradient>
        <linearGradient x1="50%" y1="100%" x2="50%" y2="3.061617e-15%" id="linearGradient-5">
            <stop stop-color="#FF8127" offset="0%"></stop>
            <stop stop-color="#FFF101" offset="100%"></stop>
        </linearGradient>
        <linearGradient x1="0%" y1="100%" x2="100%" y2="0%" id="linearGradient-6">
            <stop stop-color="#1B529B" offset="0%"></stop>
            <stop stop-color="#3D83DF" offset="100%"></stop>
        </linearGradient>
        <linearGradient x1="-1.11022302e-14%" y1="50%" x2="100%" y2="50%" id="linearGradient-7">
            <stop stop-color="#DDE5ED" offset="0%"></stop>
            <stop stop-color="#CFD6DE" offset="100%"></stop>
        </linearGradient>
        <linearGradient x1="14.099655%" y1="100%" x2="85.900345%" y2="0%" id="linearGradient-8">
            <stop stop-color="#007E6D" offset="0%"></stop>
            <stop stop-color="#00B39B" offset="100%"></stop>
        </linearGradient>
        <linearGradient x1="0%" y1="78.9996224%" x2="100%" y2="21.0003776%" id="linearGradient-9">
            <stop stop-color="#FF8127" offset="0%"></stop>
            <stop stop-color="#FFF101" offset="100%"></stop>
        </linearGradient>
        <linearGradient x1="0%" y1="58.710775%" x2="100%" y2="41.289225%" id="linearGradient-10">
            <stop stop-color="#007E6D" offset="0%"></stop>
            <stop stop-color="#00B39B" offset="100%"></stop>
        </linearGradient>
        <path d="M0.391304348,37.5652174 C0.391304348,34.8055504 2.2694859,32.4000198 4.94675609,31.7307023 L16.2650781,28.9005114 C20.1770666,12.3309833 35.0615491,0 52.826087,0 C73.5727836,0 90.3913043,16.8185207 90.3913043,37.5652174 L90.3913043,37.5652174 L19.173913,37.5652174 L15.2608696,37.5652174 L15.2608696,37.5652174 L0.391304348,37.5652174 Z" id="path-11"></path>
        <linearGradient x1="50%" y1="100%" x2="50%" y2="3.061617e-15%" id="linearGradient-13">
            <stop stop-color="#FF8127" offset="0%"></stop>
            <stop stop-color="#FFF101" offset="100%"></stop>
        </linearGradient>
        <path d="M22.7875934,37.5652174 L22.7877238,39.4774739 C22.7877238,42.8335572 25.4479081,45.5683212 28.7747199,45.6882089 L29.0025575,45.6923077 C32.3586408,45.6923077 35.0934048,43.0321234 35.2132925,39.7053116 L35.2173913,39.4774739 L35.2165934,37.5652174 L42.9565217,37.5652174 C45.1656607,37.5652174 46.9565217,39.3560784 46.9565217,41.5652174 L46.9555934,49.0782174 L45.4559315,49.0785953 C42.1643883,49.0785953 39.482216,51.6876222 39.3646338,54.9504569 L39.3606138,55.173913 C39.3606138,58.4654563 41.9696407,61.1476286 45.2324754,61.2652108 L45.4559315,61.2692308 L46.9555934,61.2692174 L46.9565217,68.7826087 C46.9565217,70.9917477 45.1656607,72.7826087 42.9565217,72.7826087 L35.2165934,72.7822174 L35.2173913,70.8703522 L35.2132925,70.6425145 C35.0934048,67.3157027 32.3586408,64.6555184 29.0025575,64.6555184 C25.6464743,64.6555184 22.9117103,67.3157027 22.7918226,70.6425145 L22.7877238,70.8703522 L22.7875934,72.7822174 L15.0485934,72.7826087 C12.8394544,72.7826087 11.0485934,70.9917477 11.0485934,68.7826087 L11.0485371,61.2692174 L6.78585481,61.2692308 C3.41950378,61.2692308 0.690537084,58.5402641 0.690537084,55.173913 C0.690537084,51.807562 3.41950378,49.0785953 6.78585481,49.0785953 L11.0485371,49.0782174 L11.0485934,41.5652174 C11.0485934,39.3560784 12.8394544,37.5652174 15.0485934,37.5652174 L22.7875934,37.5652174 Z" id="path-14"></path>
        <mask id="mask-15" maskContentUnits="userSpaceOnUse" maskUnits="objectBoundingBox" x="0" y="0" width="46.2659847" height="35.2173913" fill="white">
            <use xlink:href="#path-14"></use>
        </mask>
        <linearGradient x1="0%" y1="78.9708176%" x2="100%" y2="21.0291824%" id="linearGradient-16">
            <stop stop-color="#1B529B" offset="0%"></stop>
            <stop stop-color="#3D83DF" offset="100%"></stop>
        </linearGradient>
        <linearGradient x1="1.21489399%" y1="100%" x2="98.785106%" y2="0%" id="linearGradient-17">
            <stop stop-color="#1B529B" offset="0%"></stop>
            <stop stop-color="#3D83DF" offset="100%"></stop>
        </linearGradient>
        <linearGradient x1="50%" y1="100%" x2="50%" y2="0%" id="linearGradient-18">
            <stop stop-color="#FF8127" offset="0%"></stop>
            <stop stop-color="#FFD70A" offset="37.7173477%"></stop>
            <stop stop-color="#FFF101" offset="100%"></stop>
        </linearGradient>
        <linearGradient x1="0%" y1="50%" x2="83.9165582%" y2="50%" id="linearGradient-19">
            <stop stop-color="#FF8127" offset="0%"></stop>
            <stop stop-color="#FFF101" offset="100%"></stop>
        </linearGradient>
        <linearGradient x1="0%" y1="100%" x2="100%" y2="0%" id="linearGradient-20">
            <stop stop-color="#007E6D" offset="0%"></stop>
            <stop stop-color="#00B39B" offset="100%"></stop>
        </linearGradient>
    </defs>
    <g id="Design-V04" stroke="none" stroke-width="1" fill="none" fill-rule="evenodd">
        <g id="Project:-Alyn-Copy" transform="translate(-162.000000, -3645.000000)">
            <g id="Iconography" transform="translate(155.000000, 3473.000000)">
                <g id="Icons" transform="translate(0.000000, 127.000000)">
                    <g id="Group-3" transform="translate(401.000000, 40.000000)">
                        <g id="Atoms-/-Illustrated-Icons-/-beta-site" transform="translate(389.000000, 148.000000)">
                            <path d="M14.0869565,28.173913 L81.5184065,28.173913 C88.8428056,28.173913 94.7804041,34.1115116 94.7804041,41.4359107 C94.7804041,48.7603097 88.8428056,54.6979083 81.5184065,54.6979083 L26.6510459,54.6979083 C19.7120909,54.6979083 14.0869565,60.3230427 14.0869565,67.2619976 C14.0869565,74.2009526 19.7120909,79.826087 26.6510459,79.826087 L94.7804041,79.826087 L94.7804041,79.826087" id="Path-4" stroke="url(#linearGradient-1)" stroke-width="4" stroke-linecap="round" transform="translate(54.433680, 54.000000) rotate(32.000000) translate(-54.433680, -54.000000) "></path>
                            <use id="Rectangle-Copy" stroke="#CFD6DD" mask="url(#mask-3)" stroke-width="2" fill="#EBF3FC" fill-rule="evenodd" stroke-dasharray="4" transform="translate(62.217391, 48.130435) rotate(32.000000) translate(-62.217391, -48.130435) " xlink:href="#path-2"></use>
                            <g id="board" stroke-width="1" fill-rule="evenodd" transform="translate(22.304348, 23.478261)">
                                <rect id="Rectangle" fill="url(#linearGradient-4)" x="0" y="0" width="46.9565217" height="61.0434783" rx="4"></rect>
                                <g id="Group-2" transform="translate(7.043478, 9.391304)">
                                    <rect id="Rectangle" fill="#FFFFFF" x="12.9130435" y="7.04347826" width="19.9565217" height="2.34782609"></rect>
                                    <g id="Group">
                                        <rect id="Rectangle-Copy-4" fill="#FFFFFF" x="0" y="0" width="9.39130435" height="9.39130435"></rect>
                                        <polygon id="Path-2" fill="#00B39B" points="7.63043478 2.34782609 8.46051666 3.17790796 3.93678007 7.70164455 1.17391304 4.93877753 2.00399492 4.10869565 3.93678007 6.0414808"></polygon>
                                    </g>
                                </g>
                                <g id="Group-3" transform="translate(7.043478, 25.826087)">
                                    <g id="Group-Copy">
                                        <rect id="Rectangle-Copy-4" fill="#FFFFFF" x="0" y="0" width="9.39130435" height="9.39130435"></rect>
                                        <polygon id="Path-2" fill="#00B39B" points="7.63043478 2.34782609 8.46051666 3.17790796 3.93678007 7.70164455 1.17391304 4.93877753 2.00399492 4.10869565 3.93678007 6.0414808"></polygon>
                                    </g>
                                    <rect id="Rectangle-Copy-2" fill="#FFFFFF" x="12.9130435" y="7.04347826" width="19.9565217" height="2.34782609"></rect>
                                </g>
                                <g id="Group-4" transform="translate(7.043478, 42.260870)">
                                    <g id="Group-Copy-2">
                                        <rect id="Rectangle-Copy-4" fill="#FFFFFF" x="0" y="0" width="9.39130435" height="9.39130435"></rect>
                                        <polygon id="Path-2" fill="#00B39B" points="7.63043478 2.34782609 8.46051666 3.17790796 3.93678007 7.70164455 1.17391304 4.93877753 2.00399492 4.10869565 3.93678007 6.0414808"></polygon>
                                    </g>
                                    <rect id="Rectangle-Copy-3" fill="#FFFFFF" x="12.9130435" y="7.04347826" width="19.9565217" height="2.34782609"></rect>
                                </g>
                            </g>
                        </g>
                        <g id="Atoms-/-Illustrated-Icons-/-prototype" transform="translate(195.000000, 148.000000)">
                            <g id="Prototyping" transform="translate(8.217391, 3.521739)">
                                <path d="M8.80434783,30.5217391 L89.8043478,30.5217391 L89.8043478,76.173913 C89.8043478,79.4876215 87.1180563,82.173913 83.8043478,82.173913 L8.80434783,82.173913 L8.80434783,82.173913 L8.80434783,30.5217391 Z" id="Rectangle" fill="#EBF3FC"></path>
                                <g id="Ruler" transform="translate(75.717391, 10.565217)">
                                    <rect id="Rectangle" fill="url(#linearGradient-5)" x="0" y="0" width="9.39130435" height="88.0434783"></rect>
                                    <rect id="Rectangle" fill="#051933" x="4.69565217" y="2.34782609" width="4.69565217" height="1.17391304"></rect>
                                    <rect id="Rectangle-Copy-6" fill="#051933" x="4.69565217" y="73.9565217" width="4.69565217" height="1.17391304"></rect>
                                    <rect id="Rectangle-Copy" fill="#051933" x="7.04347826" y="5.86956522" width="2.34782609" height="1.17391304"></rect>
                                    <rect id="Rectangle-Copy-7" fill="#051933" x="7.04347826" y="77.4782609" width="2.34782609" height="1.17391304"></rect>
                                    <rect id="Rectangle-Copy-2" fill="#051933" x="7.04347826" y="9.39130435" width="2.34782609" height="1.17391304"></rect>
                                    <rect id="Rectangle-Copy-8" fill="#051933" x="7.04347826" y="81" width="2.34782609" height="1.17391304"></rect>
                                    <rect id="Rectangle-Copy-12" fill="#051933" x="4.69565217" y="63.3913043" width="4.69565217" height="1.17391304"></rect>
                                    <rect id="Rectangle-Copy-11" fill="#051933" x="7.04347826" y="66.9130435" width="2.34782609" height="1.17391304"></rect>
                                    <rect id="Rectangle-Copy-10" fill="#051933" x="7.04347826" y="70.4347826" width="2.34782609" height="1.17391304"></rect>
                                    <rect id="Rectangle-Copy-15" fill="#051933" x="4.69565217" y="52.826087" width="4.69565217" height="1.17391304"></rect>
                                    <rect id="Rectangle-Copy-14" fill="#051933" x="7.04347826" y="56.3478261" width="2.34782609" height="1.17391304"></rect>
                                    <rect id="Rectangle-Copy-13" fill="#051933" x="7.04347826" y="59.8695652" width="2.34782609" height="1.17391304"></rect>
                                    <rect id="Rectangle-Copy-3" fill="#051933" x="4.69565217" y="12.9130435" width="4.69565217" height="1.17391304"></rect>
                                    <rect id="Rectangle-Copy-9" fill="#051933" x="4.69565217" y="84.5217391" width="4.69565217" height="1.17391304"></rect>
                                </g>
                                <g id="Group-2">
                                    <path d="M42.8478261,17.6086957 L45.1956522,19.9565217 L45.1956921,25.2439185 C46.9191864,25.6875193 48.5469426,26.3695971 50.041688,27.2528789 L53.78131,23.5128176 L57.1016375,23.5128176 L60.421965,26.8331451 L60.421965,30.1534726 L56.6824915,33.8940894 C57.5654881,35.3885621 58.2473617,37.0159786 58.6908641,38.7390905 L63.9782609,38.7391304 L66.326087,41.0869565 L66.326087,45.7826087 L63.9782609,48.1304348 L58.6908641,48.1304747 C58.2473617,49.8535867 57.5654881,51.4810031 56.6824915,52.9754759 L60.421965,56.7160926 L60.421965,60.0364201 L57.1016375,63.3567476 L53.78131,63.3567476 L50.0406933,59.6172741 C48.5462205,60.5002707 46.9188041,61.1821443 45.1956921,61.6256467 L45.1956522,66.9130435 L42.8478261,69.2608696 L38.1521739,69.2608696 L35.8043478,66.9130435 L35.8043079,61.6256467 C34.0811959,61.1821443 32.4537795,60.5002707 30.9593067,59.6172741 L27.21869,63.3567476 L23.8983625,63.3567476 L20.578035,60.0364201 L20.578035,56.7160926 L24.3180962,52.9764706 C23.4348145,51.4817253 22.7527367,49.853969 22.3091359,48.1304747 L17.0217391,48.1304348 L14.673913,45.7826087 L14.673913,41.0869565 L17.0217391,38.7391304 L22.3091359,38.7390905 C22.7527367,37.0155963 23.4348145,35.38784 24.3180962,33.8930947 L20.578035,30.1534726 L20.578035,26.8331451 L23.8983625,23.5128176 L27.21869,23.5128176 L30.958312,27.2528789 C32.4530574,26.3695971 34.0808136,25.6875193 35.8043079,25.2439185 L35.8043478,19.9565217 L38.1521739,17.6086957 L42.8478261,17.6086957 Z M40.5,36.3913043 C36.6099944,36.3913043 33.4565217,39.544777 33.4565217,43.4347826 C33.4565217,47.3247882 36.6099944,50.4782609 40.5,50.4782609 C44.3900056,50.4782609 47.5434783,47.3247882 47.5434783,43.4347826 C47.5434783,39.544777 44.3900056,36.3913043 40.5,36.3913043 Z" id="Combined-Shape" fill="url(#linearGradient-6)"></path>
                                    <g id="Group-4" transform="translate(40.500000, 43.434783) rotate(16.000000) translate(-40.500000, -43.434783) translate(9.391304, 8.217391)">
                                        <path d="M31.1086957,66.326087 L31.1086957,65.1521739 C47.6412196,65.1521739 61.0434783,51.7499152 61.0434783,35.2173913 L62.2173913,35.2173913 C62.2173913,52.3982495 48.2895538,66.326087 31.1086957,66.326087 Z" id="Oval" fill="#3D83DF"></path>
                                        <path d="M31.1086957,4.10869565 L31.1086957,5.2826087 C14.5761717,5.2826087 1.17391304,18.6848674 1.17391304,35.2173913 L1.09139364e-11,35.2173913 C1.09139364e-11,18.0365331 13.9278375,4.10869565 31.1086957,4.10869565 Z" id="Oval-Copy-6" fill="#3D83DF"></path>
                                        <circle id="Oval" fill="#FFF101" cx="34.2613851" cy="5.59146633" r="4.69565217"></circle>
                                        <circle id="Oval-Copy-7" fill="#FFF101" cx="27.648474" cy="64.8675031" r="4.69565217"></circle>
                                    </g>
                                </g>
                                <path d="M72.1956522,68.0869565 C75.326087,68.0869565 78.8478261,68.0869565 82.7608696,68.0869565 C86.673913,68.0869565 89.0217391,70.4347826 89.8043478,75.1304348 C89.8043478,44.1974097 89.8043478,27.7626271 89.8043478,25.826087 C89.8043478,21.9360813 86.6508752,18.7826087 82.7608696,18.7826087 C80.1675325,18.7826087 76.6457933,18.7826087 72.1956522,18.7826087 L72.1956522,68.0869565 Z" id="Combined-Shape" fill="url(#linearGradient-7)"></path>
                            </g>
                        </g>
                        <g id="Atoms-/-Illustrated-Icons-/-coworking">
                            <path d="M30.2244985,27.9270324 L52.5640837,19.3348842 C53.4883579,18.9793941 54.5116421,18.9793941 55.4359163,19.3348842 L77.7755015,27.9270324 C78.8318718,28.3333286 79.6666714,29.1681282 80.0729676,30.2244985 L88.6651158,52.5640837 C89.0206059,53.4883579 89.0206059,54.5116421 88.6651158,55.4359163 L80.0729676,77.7755015 C79.6666714,78.8318718 78.8318718,79.6666714 77.7755015,80.0729676 L55.4359163,88.6651158 C54.5116421,89.0206059 53.4883579,89.0206059 52.5640837,88.6651158 L30.2244985,80.0729676 C29.1681282,79.6666714 28.3333286,78.8318718 27.9270324,77.7755015 L19.3348842,55.4359163 C18.9793941,54.5116421 18.9793941,53.4883579 19.3348842,52.5640837 L27.9270324,30.2244985 C28.3333286,29.1681282 29.1681282,28.3333286 30.2244985,27.9270324 Z" id="Rectangle" fill="#EBF3FC"></path>
                            <g id="wrench" stroke-width="1" transform="translate(18.782609, 12.913043)">
                                <path d="M51.240494,41.0777004 L43.1594769,45.7439485 L43.1594769,56.8961224 L52.8175428,62.4722093 L60.0568411,58.2921187 C59.0777454,61.6569486 56.8493805,64.6636381 53.5748515,66.5541883 C48.1386975,69.6927533 41.4801757,68.796268 37.0674312,64.7940192 L7.98339275,81.584792 C5.73749696,82.8814605 2.86568114,82.1119598 1.5690126,79.866064 C0.272344053,77.6201682 1.04184478,74.7483524 3.28774058,73.4516838 L32.6085413,56.5233726 C31.740358,50.9416732 34.3023433,45.1487436 39.487895,42.1548639 C43.203512,40.0096514 47.4901871,39.7495082 51.240494,41.0777004 Z M69.8746172,2.46600145 C71.1712857,4.71189725 70.401785,7.58371306 68.1558892,8.88038161 L38.8350885,25.8086929 C39.7032718,31.3903923 37.1412865,37.1833219 31.9557348,40.1772016 C28.2401177,42.3224141 23.9534426,42.5825572 20.2031358,41.254365 L28.2841529,36.588117 L28.2841529,25.4359431 L18.626087,19.8598561 L11.3867887,24.0399467 C12.3658844,20.6751168 14.5942493,17.6684273 17.8687783,15.7778771 C23.3049323,12.6393121 29.9634541,13.5357974 34.3761985,17.5380462 L63.460237,0.747273466 C65.7061328,-0.549395077 68.5779486,0.220105652 69.8746172,2.46600145 Z" id="Combined-Shape" fill="url(#linearGradient-8)"></path>
                                <g id="Group-7" transform="translate(10.565217, 22.703964)">
                                    <path d="M42.2608696,20.3312022 L49.3773392,24.4398979 L49.3773392,32.6572892 L42.2608696,36.7659848 L35.1443999,32.6572892 L35.1443999,24.4398979 L42.2608696,20.3312022 Z M8.2173913,0 L15.3338609,4.10869565 L15.3338609,12.326087 L8.2173913,16.4347826 L1.10092168,12.326087 L1.10092168,4.10869565 L8.2173913,0 Z" id="Combined-Shape" fill="url(#linearGradient-9)"></path>
                                    <path d="M8.2173913,12.326087 C5.94822135,12.326087 4.10869565,10.4865613 4.10869565,8.2173913 C4.10869565,5.94822135 5.94822135,4.10869565 8.2173913,4.10869565 C10.4865613,4.10869565 12.326087,5.94822135 12.326087,8.2173913 C12.326087,10.4865613 10.4865613,12.326087 8.2173913,12.326087 Z M8.2173913,11.1521739 C9.83822698,11.1521739 11.1521739,9.83822698 11.1521739,8.2173913 C11.1521739,6.59655563 9.83822698,5.2826087 8.2173913,5.2826087 C6.59655563,5.2826087 5.2826087,6.59655563 5.2826087,8.2173913 C5.2826087,9.83822698 6.59655563,11.1521739 8.2173913,11.1521739 Z" id="Oval" fill="#FFFFFF" fill-rule="nonzero"></path>
                                </g>
                            </g>
                            <g id="wrench" stroke-width="1" transform="translate(49.304348, 74.543478) scale(-1, -1) translate(-49.304348, -74.543478) translate(18.782609, 52.826087)" fill="#FFFFFF">
                                <g id="Group-7" transform="translate(0.000000, 23.877877)" fill-rule="nonzero">
                                    <path d="M8.2173913,12.326087 C5.94822135,12.326087 4.10869565,10.4865613 4.10869565,8.2173913 C4.10869565,5.94822135 5.94822135,4.10869565 8.2173913,4.10869565 C10.4865613,4.10869565 12.326087,5.94822135 12.326087,8.2173913 C12.326087,10.4865613 10.4865613,12.326087 8.2173913,12.326087 Z M8.2173913,11.1521739 C9.83822698,11.1521739 11.1521739,9.83822698 11.1521739,8.2173913 C11.1521739,6.59655563 9.83822698,5.2826087 8.2173913,5.2826087 C6.59655563,5.2826087 5.2826087,6.59655563 5.2826087,8.2173913 C5.2826087,9.83822698 6.59655563,11.1521739 8.2173913,11.1521739 Z" id="Oval"></path>
                                </g>
                            </g>
                        </g>
                        <g id="Atoms-/-Illustrated-Icons-/-multidisciplinary" transform="translate(195.000000, 0.000000)">
                            <rect id="Rectangle" fill="#EBF3FC" x="23.4782609" y="23.4782609" width="61.0434783" height="61.0434783"></rect>
                            <rect id="Rectangle-Copy" fill="#CFD6DD" x="23.4782609" y="23.4782609" width="30.5217391" height="30.5217391"></rect>
                            <rect id="Rectangle-Copy-2" fill="#CFD6DD" x="54" y="54" width="30.5217391" height="30.5217391"></rect>
                            <g id="Group-2" stroke-width="1" transform="translate(4.695652, 35.217391)">
                                <g id="Group-3" transform="translate(0.782609, 0.000000)">
                                    <mask id="mask-12" fill="white">
                                        <use xlink:href="#path-11"></use>
                                    </mask>
                                    <use id="Combined-Shape" fill="url(#linearGradient-10)" xlink:href="#path-11"></use>
                                    <polygon id="Shadow" fill="#000000" opacity="0.200000003" mask="url(#mask-12)" transform="translate(72.903388, 33.772953) rotate(-45.000000) translate(-72.903388, -33.772953) " points="35.3381705 10.2946922 110.468605 10.2946922 110.468605 57.2512139 35.3381705 57.2512139"></polygon>
                                </g>
                                <path d="M76.8687858,16.6141578 C71.1391469,10.2571386 62.8406106,6.26086957 53.6086957,6.26086957 C44.6076428,6.26086957 36.4938703,10.0597686 30.7832417,16.1417032" id="Shape" stroke="#000000" stroke-linecap="round" stroke-linejoin="bevel"></path>
                            </g>
                            <g id="Group" stroke-width="1" transform="translate(79.826087, 19.956522)">
                                <path d="M1,14.0869565 L6.04347826,14.0869565 C6.59576301,14.0869565 7.04347826,14.5346718 7.04347826,15.0869565 L7.04347826,37.4428829 C7.04347826,37.5244202 7.04098514,37.6059384 7.0360024,37.6873232 L5.2826087,66.326087 C5.22306779,67.2985884 4.3864322,68.0386891 3.41393079,67.9791482 C2.5245018,67.9246933 1.8153244,67.2155159 1.76086957,66.326087 L0.00747586574,37.6873232 C0.00249312014,37.6059384 -2.96569187e-13,37.5244202 -3.77475828e-13,37.4428829 L-3.77475828e-13,15.0869565 C-3.77543464e-13,14.5346718 0.44771525,14.0869565 1,14.0869565 Z" id="Rectangle" fill="url(#linearGradient-13)"></path>
                                <path d="M3.52173913,14.0869565 C5.46674194,14.0869565 7.04347826,12.5102202 7.04347826,10.5652174 C7.04347826,9.26854885 5.86956522,5.74680972 3.52173913,-1.77635684e-15 C1.17391304,5.74680972 2.22044605e-15,9.26854885 2.22044605e-15,10.5652174 C2.22044605e-15,12.5102202 1.57673632,14.0869565 3.52173913,14.0869565 Z" id="Oval" fill="#000000"></path>
                            </g>
                        </g>
                        <g id="Atoms-/-Illustrated-Icons-/-needs" transform="translate(0.000000, 148.000000)">
                            <g id="Needs-Icon" transform="translate(1.173913, 17.608696)">
                                <use id="Combined-Shape-Copy-3" stroke="#D8DEE4" mask="url(#mask-15)" stroke-width="2" fill="#EDF4F7" stroke-dasharray="4,3" xlink:href="#path-14"></use>
                                <path d="M35.7006368,24.6521739 L35.7007673,26.5644305 C35.7007673,29.9205137 38.3609516,32.6552777 41.6877634,32.7751654 L41.915601,32.7792642 C45.2716843,32.7792642 48.0064483,30.1190799 48.126336,26.7922681 L48.1304348,26.5644305 L48.1296368,24.6521739 L55.8695652,24.6521739 C58.0787042,24.6521739 59.8695652,26.4430349 59.8695652,28.6521739 L59.8686368,36.1651739 L58.368975,36.1655518 C55.0774318,36.1655518 52.3952595,38.7745788 52.2776772,42.0374134 L52.2736573,42.2608696 C52.2736573,45.5524128 54.8826842,48.2345851 58.1455188,48.3521673 L58.368975,48.3561873 L59.8686368,48.3561739 L59.8695652,55.8695652 C59.8695652,58.0787042 58.0787042,59.8695652 55.8695652,59.8695652 L48.1296368,59.8691739 L48.1304348,57.9573087 L48.126336,57.729471 C48.0064483,54.4026592 45.2716843,51.7424749 41.915601,51.7424749 C38.5595177,51.7424749 35.8247538,54.4026592 35.704866,57.729471 L35.7007673,57.9573087 L35.7006368,59.8691739 L27.9616368,59.8695652 C25.7524978,59.8695652 23.9616368,58.0787042 23.9616368,55.8695652 L23.9615806,48.3561739 L19.6988983,48.3561873 C16.3325473,48.3561873 13.6035806,45.6272206 13.6035806,42.2608696 C13.6035806,38.8945185 16.3325473,36.1655518 19.6988983,36.1655518 L23.9615806,36.1651739 L23.9616368,28.6521739 C23.9616368,26.4430349 25.7524978,24.6521739 27.9616368,24.6521739 L35.7006368,24.6521739 Z" id="Combined-Shape" fill="url(#linearGradient-16)"></path>
                                <g id="Group-7" transform="translate(41.086957, 0.000000)">
                                    <circle id="Oval" fill="#EDF4F7" cx="22.1437071" cy="22.1437071" r="19.3757437"></circle>
                                    <path d="M23.6796339,16.6077803 C25.8887729,16.6077803 27.6796339,18.3986413 27.6796339,20.6077803 L27.6786868,33.9067803 L25.6443667,33.9075515 C21.380868,33.9075515 17.7977896,36.820777 16.777133,40.7652264 C10.705526,39.0198469 5.85762683,34.385128 3.8158005,28.4454323 C7.53010079,27.3507903 10.2611686,23.9659048 10.3760934,19.9260015 L10.3798627,19.6606811 L10.3796868,16.6077803 L23.6796339,16.6077803 Z" id="Combined-Shape" fill="url(#linearGradient-17)"></path>
                                    <path d="M22.1437071,-1.13686838e-13 C34.3733388,-1.13686838e-13 44.2874142,9.91407536 44.2874142,22.1437071 C44.2874142,26.7581243 42.8759847,31.0428845 40.4612942,34.5898193 L65.7127938,59.8410568 L59.8410568,65.7127938 L34.5898193,40.4612942 C31.0428845,42.8759847 26.7581243,44.2874142 22.1437071,44.2874142 C9.91407536,44.2874142 0,34.3733388 0,22.1437071 C0,9.91407536 9.91407536,-1.13686838e-13 22.1437071,-1.13686838e-13 Z M22.1437071,2.76796339 C11.4427793,2.76796339 2.76796339,11.4427793 2.76796339,22.1437071 C2.76796339,32.8446349 11.4427793,41.5194508 22.1437071,41.5194508 C32.8446349,41.5194508 41.5194508,32.8446349 41.5194508,22.1437071 C41.5194508,11.4427793 32.8446349,2.76796339 22.1437071,2.76796339 Z" id="Combined-Shape" fill="url(#linearGradient-18)"></path>
                                </g>
                                <path d="M103.522736,56.7026318 L104.478261,57.6581565 L98.745113,63.3913043 L97.7895883,62.4357797 L103.522736,56.7026318 Z M100.820104,54 L101.775629,54.9555246 L96.0424812,60.6886725 L95.0869565,59.7331479 L100.820104,54 Z" id="Combined-Shape" fill="#092C59"></path>
                            </g>
                        </g>
                    </g>
                    <g id="Atoms-/-Illustrated-Icons-/-fast-track">
                        <g id="Group-5" transform="translate(7.565217, 45.391304)">
                            <path d="M121.993907,32.509284 L148.740989,59.2563666 L127.343323,80.6540326 L100.596241,53.9069501 L121.993907,32.509284 Z M309.223485,32.509284 L330.621151,53.9069501 L303.874068,80.6540326 L282.476402,59.2563666 L309.223485,32.509284 Z M238.304348,-3.69482223e-13 L238.304348,15.1304348 L230.738241,15.13 L230.73913,26.4782609 L200.478261,26.4782609 L200.478241,15.13 L192.913043,15.1304348 L192.913043,-3.69482223e-13 L238.304348,-3.69482223e-13 Z" id="Combined-Shape" fill="#CFD6DD"></path>
                            <rect id="Rectangle-Copy-21" fill="#CFD6DD" x="200.478261" y="3.7826087" width="30.2608696" height="15.1304348"></rect>
                            <path d="M128.608696,181.565217 C132.78685,181.565217 136.173913,184.952281 136.173913,189.130435 C136.173913,193.308589 132.78685,196.695652 128.608696,196.695652 L45.3913043,196.695652 C41.2131502,196.695652 37.826087,193.308589 37.826087,189.130435 C37.826087,184.952281 41.2131502,181.565217 45.3913043,181.565217 L128.608696,181.565217 Z M128.608696,136.173913 C132.78685,136.173913 136.173913,139.560976 136.173913,143.73913 C136.173913,147.917285 132.78685,151.304348 128.608696,151.304348 L7.56521739,151.304348 C3.3870632,151.304348 0,147.917285 0,143.73913 C0,139.560976 3.3870632,136.173913 7.56521739,136.173913 L128.608696,136.173913 Z M128.608696,90.7826087 C132.78685,90.7826087 136.173913,94.1696719 136.173913,98.3478261 C136.173913,102.52598 132.78685,105.913043 128.608696,105.913043 L45.3913043,105.913043 C41.2131502,105.913043 37.826087,102.52598 37.826087,98.3478261 C37.826087,94.1696719 41.2131502,90.7826087 45.3913043,90.7826087 L128.608696,90.7826087 Z" id="Combined-Shape" fill="url(#linearGradient-19)"></path>
                            <circle id="Oval" fill="#EBF3FC" cx="215.608696" cy="139.956522" r="117.26087"></circle>
                            <path d="M215.608696,22.6956522 C280.370086,22.6956522 332.869565,75.1951317 332.869565,139.956522 C332.869565,204.717912 280.370086,257.217391 215.608696,257.217391 C150.847306,257.217391 98.3478261,204.717912 98.3478261,139.956522 C98.3478261,75.1951317 150.847306,22.6956522 215.608696,22.6956522 Z M215.608696,30.2608696 C155.02546,30.2608696 105.913043,79.3732859 105.913043,139.956522 C105.913043,200.539758 155.02546,249.652174 215.608696,249.652174 C276.191931,249.652174 325.304348,200.539758 325.304348,139.956522 C325.304348,79.3732859 276.191931,30.2608696 215.608696,30.2608696 Z M219.131411,223.1007 L219.130435,242.086957 L212.086957,242.086957 L212.08598,223.1007 C213.254159,223.149347 214.428558,223.173913 215.608696,223.173913 C216.788833,223.173913 217.963233,223.149347 219.131411,223.1007 Z M240.534845,219.376462 L243.62075,230.891976 L236.817272,232.714962 L233.731813,221.194804 C236.036937,220.682837 238.306073,220.075264 240.534845,219.376462 Z M190.682546,219.376462 C192.911318,220.075264 195.180454,220.682837 197.485579,221.194804 L194.400119,232.714962 L187.596642,230.891976 L190.682546,219.376462 Z M260.234802,210.2089 L266.202089,220.543372 L260.102258,224.065111 L254.13882,213.735893 C256.224386,212.644502 258.257943,211.467274 260.234802,210.2089 Z M170.98259,210.2089 C172.959448,211.467274 174.993006,212.644502 177.078572,213.735893 L171.115133,224.065111 L165.015302,220.543372 L170.98259,210.2089 Z M276.890116,196.257487 L290.316064,209.683399 L285.335573,214.66389 L271.909661,201.237942 C273.638867,199.64844 275.300614,197.986693 276.890116,196.257487 Z M154.327275,196.257487 C155.916778,197.986693 157.578524,199.64844 159.30773,201.237942 L145.881818,214.66389 L140.901327,209.683399 L154.327275,196.257487 Z M219.391304,64.3043478 L219.391304,138.43737 L272.347826,192.913043 L266.884105,198.145659 L211.826087,141.475674 L211.826087,64.3043478 L219.391304,64.3043478 Z M289.388067,178.486646 L299.717285,184.450084 L296.195546,190.549916 L285.861074,184.582628 C287.119448,182.605769 288.296676,180.572212 289.388067,178.486646 Z M141.829325,178.486646 C142.920715,180.572212 144.097943,182.605769 145.356317,184.582628 L135.021845,190.549916 L131.500106,184.450084 L141.829325,178.486646 Z M226.957483,72.2852196 C261.000124,76.0489307 287.478261,104.910576 287.478261,139.956522 C287.478261,155.281482 282.41523,169.423908 273.870634,180.802334 C273.544313,181.23688 273.212914,181.667394 272.876526,182.09379 L226.956522,136.173913 L226.957483,72.2852196 Z M296.846978,158.079639 L308.367136,161.165098 L306.54415,167.968576 L295.028636,164.882671 C295.727438,162.653899 296.335011,160.384764 296.846978,158.079639 Z M134.370191,158.078639 C134.882205,160.384108 135.489852,162.653577 136.188756,164.882671 L124.673242,167.968576 L122.850255,161.165098 L134.370191,158.078639 Z M298.752874,136.433806 L317.73913,136.434783 L317.73913,143.478261 L298.752874,143.479237 C298.801521,142.311059 298.826087,141.136659 298.826087,139.956522 C298.826087,138.776384 298.801521,137.601985 298.752874,136.433806 Z M132.464518,136.433806 C132.41587,137.601985 132.391304,138.776384 132.391304,139.956522 C132.391304,141.136659 132.41587,142.311059 132.464518,143.479237 L113.478261,143.478261 L113.478261,136.434783 L132.464518,136.433806 Z M124.673242,111.944468 L136.188756,115.030372 C135.489852,117.259466 134.882205,119.528936 134.370191,121.834404 L122.850255,118.747945 L124.673242,111.944468 Z M306.54415,111.944468 L308.367136,118.747945 L296.846978,121.833405 C296.335011,119.52828 295.727438,117.259144 295.028636,115.030372 L306.54415,111.944468 Z M135.021845,89.3631279 L145.356317,95.3304158 C144.097943,97.3072743 142.920715,99.3408318 141.829325,101.426398 L131.500106,95.462959 L135.021845,89.3631279 Z M296.195546,89.3631279 L299.717285,95.462959 L289.388067,101.426398 C288.296676,99.3408318 287.119448,97.3072743 285.861074,95.3304158 L296.195546,89.3631279 Z M145.881818,65.2491531 L159.30773,78.6751014 C157.578524,80.2646037 155.916778,81.9263505 154.327275,83.6555562 L140.901327,70.2296444 L145.881818,65.2491531 Z M285.335573,65.2491531 L290.316064,70.2296444 L276.890116,83.6555562 C275.300614,81.9263505 273.638867,80.2646037 271.909661,78.6751014 L285.335573,65.2491531 Z M171.115133,55.8479323 L177.078572,66.1771509 C174.993006,67.2685413 172.959448,68.445769 170.98259,69.7041435 L165.015302,59.3696714 L171.115133,55.8479323 Z M260.102258,55.8479323 L266.202089,59.3696714 L260.234802,69.7041435 C258.257943,68.445769 256.224386,67.2685413 254.13882,66.1771509 L260.102258,55.8479323 Z M194.400119,47.1980815 L197.486578,58.7180173 C195.18111,59.2300311 192.91164,59.8376782 190.682546,60.5365817 L187.596642,49.0210679 L194.400119,47.1980815 Z M236.817272,47.1980815 L243.62075,49.0210679 L240.534845,60.5365817 C238.305751,59.8376782 236.036282,59.2300311 233.730813,58.7180173 L236.817272,47.1980815 Z M219.130435,37.826087 L219.131411,56.8123437 C217.963233,56.763696 216.788833,56.7391304 215.608696,56.7391304 C214.428558,56.7391304 213.254159,56.763696 212.08598,56.8123437 L212.086957,37.826087 L219.130435,37.826087 Z" id="Combined-Shape" fill="url(#linearGradient-20)"></path>
                        </g>
                    </g>
                </g>
            </g>
        </g>
    </g>
</svg>
