<?xml version="1.0" encoding="UTF-8"?>
<svg width="56px" height="8px" viewBox="0 0 56 8" version="1.1" xmlns="http://www.w3.org/2000/svg" xmlns:xlink="http://www.w3.org/1999/xlink">
    <!-- Generator: Sketch 52.6 (67491) - http://www.bohemiancoding.com/sketch -->
    <title>Break Copy 2</title>
    <desc>Created with Sketch.</desc>
    <g id="Design-V04" stroke="none" stroke-width="1" fill="none" fill-rule="evenodd">
        <g id="Project:-Watoobi" transform="translate(-692.000000, -13117.000000)" fill="#44BEA4">
            <g id="Mobile-Design" transform="translate(370.000000, 10855.000000)">
                <path d="M350,2270 C347.790861,2270 346,2268.20914 346,2266 C346,2263.79086 347.790861,2262 350,2262 C352.209139,2262 354,2263.79086 354,2266 C354,2268.20914 352.209139,2270 350,2270 Z M374,2270 C371.790861,2270 370,2268.20914 370,2266 C370,2263.79086 371.790861,2262 374,2262 C376.209139,2262 378,2263.79086 378,2266 C378,2268.20914 376.209139,2270 374,2270 Z M326,2270 C323.790861,2270 322,2268.20914 322,2266 C322,2263.79086 323.790861,2262 326,2262 C328.209139,2262 330,2263.79086 330,2266 C330,2268.20914 328.209139,2270 326,2270 Z" id="Break-Copy-2"></path>
            </g>
        </g>
    </g>
</svg>
