<?xml version="1.0" encoding="UTF-8"?>
<svg width="56px" height="8px" viewBox="0 0 56 8" version="1.1" xmlns="http://www.w3.org/2000/svg" xmlns:xlink="http://www.w3.org/1999/xlink">
    <!-- Generator: Sketch 52.6 (67491) - http://www.bohemiancoding.com/sketch -->
    <title>Break</title>
    <desc>Created with Sketch.</desc>
    <g id="Design-V04" stroke="none" stroke-width="1" fill="none" fill-rule="evenodd">
        <g id="Project:-Watoobi" transform="translate(-692.000000, -11753.000000)" fill="#44BEA4">
            <g id="Mobile-Design" transform="translate(370.000000, 10855.000000)">
                <path d="M350,906 C347.790861,906 346,904.209139 346,902 C346,899.790861 347.790861,898 350,898 C352.209139,898 354,899.790861 354,902 C354,904.209139 352.209139,906 350,906 Z M374,906 C371.790861,906 370,904.209139 370,902 C370,899.790861 371.790861,898 374,898 C376.209139,898 378,899.790861 378,902 C378,904.209139 376.209139,906 374,906 Z M326,906 C323.790861,906 322,904.209139 322,902 C322,899.790861 323.790861,898 326,898 C328.209139,898 330,899.790861 330,902 C330,904.209139 328.209139,906 326,906 Z" id="Break"></path>
            </g>
        </g>
    </g>
</svg>
