<?xml version="1.0" encoding="UTF-8"?>
<svg width="20px" height="20px" viewBox="0 0 20 20" version="1.1" xmlns="http://www.w3.org/2000/svg" xmlns:xlink="http://www.w3.org/1999/xlink">
    <title>Icon / globe</title>
    <g id="Design-V05" stroke="none" stroke-width="1" fill="none" fill-rule="evenodd">
        <g id="Project:-AceTech" transform="translate(-369.000000, -1060.000000)" fill="#FF0052">
            <g id="Globe-icon" transform="translate(369.000000, 1060.000000)">
                <path d="M10,-5.32907052e-15 L10,-5.32907052e-15 C4.47715,-5.32907052e-15 -5.32907052e-15,4.47715 -5.32907052e-15,10 C-5.32907052e-15,15.52285 4.47715,20 10,20 C15.52285,20 20,15.52285 20,10 L20,10 C20,4.47715044 15.52285,-5.32907052e-15 10,-5.32907052e-15 L10,-5.32907052e-15 Z M9.99999984,2 L9.99999984,2 C10.6025753,2.00393624 11.2028803,2.0743625 11.7900004,2.21 L11.7900004,2.20999971 C11.6161714,2.60239271 11.3482634,2.94586471 11.0100004,3.20999971 C10.7900004,3.37999971 10.5500004,3.51999971 10.3100004,3.66999971 L10.3100001,3.66999988 C9.55022306,4.04407788 8.90963006,4.62234388 8.46000006,5.33999988 L8.46000013,5.33999973 C7.96743113,6.36656973 7.75360813,7.50465973 7.84000013,8.63999973 C7.84000013,10 7.84000013,10.7999997 6.89000013,11.5099997 C5.52000013,12.5799997 3.43000013,11.9799997 2.13000013,11.4399997 L2.12999984,11.4399981 C2.04501274,10.9646751 2.00151584,10.4828631 1.99999984,10 L1.99999984,10 C1.99999984,5.5817293 5.58171984,2 9.99999984,2 L9.99999984,2 Z M14.8900004,16.32 L14.8900004,16.32 C14.7170164,15.92069 14.5060464,15.538934 14.2600004,15.18 C14.1500004,15.02 14.0400004,14.86 13.9400004,14.69 C13.5500004,14.01 13.6900004,13.69 14.3200004,12.69 L14.4200004,12.52 L14.4200004,12.52 C14.8257834,11.775912 15.0259834,10.93714 15.0000004,10.09 L15.0000003,10.0899554 C14.9989974,9.75455442 15.0291295,9.41978542 15.0900087,9.08995542 C15.2500087,8.35995542 16.8000087,8.15995542 17.7600087,8.08995542 L17.7600087,8.08995542 C18.5531717,11.1737455 17.4273557,14.4331055 14.9000087,16.3699555 L14.8900004,16.32 Z"></path>
            </g>
        </g>
    </g>
</svg>