<?xml version="1.0" encoding="UTF-8"?>
<svg width="4px" height="19px" viewBox="0 0 4 19" version="1.1" xmlns="http://www.w3.org/2000/svg" xmlns:xlink="http://www.w3.org/1999/xlink">
    <!-- Generator: Sketch 52.5 (67469) - http://www.bohemiancoding.com/sketch -->
    <title>icon-!</title>
    <desc>Created with Sketch.</desc>
    <g id="Design-V03" stroke="none" stroke-width="1" fill="none" fill-rule="evenodd">
        <g id="Desktop-Project-Watoobi-V03" transform="translate(-946.000000, -2285.000000)" fill="#FFFFFF">
            <g id="Ideation" transform="translate(0.000000, 1469.000000)">
                <g id="Group-2-Copy-2" transform="translate(930.000000, 808.000000)">
                    <path d="M18.904,8.864 C19.2400017,8.97600056 19.3840002,9.22399808 19.336,9.608 C19.2559996,10.3600038 19.1760004,11.1839955 19.096,12.08 C19.0159996,12.9760045 18.9400004,13.9039952 18.868,14.864 C18.7959996,15.8240048 18.7280003,16.7919951 18.664,17.768 C18.5999997,18.7440049 18.5520002,19.6879954 18.52,20.6 C18.327999,20.6 18.136001,20.5920001 17.944,20.576 C17.751999,20.5599999 17.5840007,20.5200003 17.44,20.456 C17.3759997,19.3359944 17.3080004,18.2960048 17.236,17.336 C17.1639996,16.3759952 17.0920004,15.4640043 17.02,14.6 C16.9479996,13.7359957 16.8680004,12.900004 16.78,12.092 C16.6919996,11.283996 16.5920006,10.4720041 16.48,9.656 C16.6400008,9.62399984 16.8319989,9.57600032 17.056,9.512 C17.2800011,9.44799968 17.5079988,9.38000036 17.74,9.308 C17.9720012,9.23599964 18.191999,9.16400036 18.4,9.092 C18.608001,9.01999964 18.7759994,8.9440004 18.904,8.864 Z M18.064,23.552 C18.4800021,23.552 18.8039988,23.6919986 19.036,23.972 C19.2680012,24.2520014 19.384,24.5279986 19.384,24.8 C19.384,25.2800024 19.2400014,25.6319989 18.952,25.856 C18.6639986,26.0800011 18.3360018,26.192 17.968,26.192 C17.5359978,26.192 17.2000012,26.0720012 16.96,25.832 C16.7199988,25.5919988 16.6,25.2880018 16.6,24.92 C16.6,24.5519982 16.7359986,24.2320014 17.008,23.96 C17.2800014,23.6879986 17.6319978,23.552 18.064,23.552 Z" id="icon-!"></path>
                </g>
            </g>
        </g>
    </g>
</svg>
