<?xml version="1.0" encoding="UTF-8"?>
<svg width="24px" height="25px" viewBox="0 0 24 25" version="1.1" xmlns="http://www.w3.org/2000/svg" xmlns:xlink="http://www.w3.org/1999/xlink">
    <!-- Generator: Sketch 52.5 (67469) - http://www.bohemiancoding.com/sketch -->
    <title>icon-emotional</title>
    <desc>Created with Sketch.</desc>
    <g id="Design-V03" stroke="none" stroke-width="1" fill="none" fill-rule="evenodd">
        <g id="Desktop-Project-Watoobi-V03" transform="translate(-156.000000, -1287.000000)" fill="#FFFFFF" fill-rule="nonzero">
            <g id="insights" transform="translate(150.000000, 1282.000000)">
                <g id="Group-3">
                    <path d="M18.7313958,5.00001211 C23.443456,4.99693588 27.6594168,8.04937708 29.2988948,12.6510959 C30.9383728,17.2528147 29.6548708,22.4312562 26.0817383,25.6310968 C22.5086058,28.8309374 17.40101,29.3759036 13.2793154,26.9970795 L7.4261555,29.9007799 C7.04427393,30.0880023 6.59066811,30.0053715 6.29244841,29.6942588 C5.99422871,29.3831461 5.91558478,28.9105165 6.09589188,28.5130049 L8.88044369,22.4159634 C6.94169397,18.7830085 6.99504041,14.3522109 9.02064752,10.7710469 C11.0462546,7.18988298 14.7411167,4.99405039 18.7313958,5.00001211 Z M18.7313958,26.3907094 L18.7303956,26.3907094 C22.9483452,26.3943337 26.6357808,23.4285385 27.6995269,19.1768596 C28.763273,14.9251806 26.9345577,10.4618703 23.2514526,8.32053015 C19.5683475,6.17918996 14.961446,6.90086256 12.0458592,10.07589 C9.13027241,13.2509174 8.6426684,18.0770798 10.8598359,21.8148026 C11.0399043,22.1161958 11.0602593,22.4923541 10.9138466,22.812917 L9.41354933,26.0948174 C9.36826174,26.194313 9.3879302,26.3127248 9.46267724,26.3905862 C9.53742427,26.4684477 9.65109951,26.4889357 9.74661533,26.4417611 L12.8972397,24.8789515 C13.2044753,24.7254981 13.565571,24.7455223 13.8554296,24.932087 C15.3184052,25.8823432 17.0073073,26.3875703 18.7313958,26.3907094 Z M13.7515361,16.4606044 C12.9229448,16.4606044 12.2512388,15.7609107 12.2512388,14.8977947 C12.2512388,14.0346788 12.9229448,13.334985 13.7515361,13.334985 C14.5801274,13.334985 15.2518334,14.0346788 15.2518334,14.8977947 C15.2518334,15.7609107 14.5801274,16.4606044 13.7515361,16.4606044 Z M24.1702674,16.4606044 C23.3416761,16.4606044 22.6699701,15.7609107 22.6699701,14.8977947 C22.6699701,14.0346788 23.3416761,13.334985 24.1702674,13.334985 C24.9988587,13.334985 25.6705647,14.0346788 25.6705647,14.8977947 C25.6705647,15.7609107 24.9988587,16.4606044 24.1702674,16.4606044 Z M21.8868149,18.5443507 C22.163012,18.5443507 22.386914,18.7775819 22.386914,19.0652873 C22.35713,20.7598442 21.0298699,22.1173257 19.4028227,22.1173257 C17.7757754,22.1173257 16.4485153,20.7598442 16.4187313,19.0652873 C16.4187313,18.7775819 16.6426333,18.5443507 16.9188304,18.5443507 L21.8868149,18.5443507 Z" id="icon-emotional"></path>
                </g>
            </g>
        </g>
    </g>
</svg>
