<?xml version="1.0" encoding="UTF-8"?>
<svg width="22px" height="20px" viewBox="0 0 22 20" version="1.1" xmlns="http://www.w3.org/2000/svg" xmlns:xlink="http://www.w3.org/1999/xlink">
    <!-- Generator: Sketch 52.5 (67469) - http://www.bohemiancoding.com/sketch -->
    <title>icon-participate</title>
    <desc>Created with Sketch.</desc>
    <g id="Design-V03" stroke="none" stroke-width="1" fill="none" fill-rule="evenodd">
        <g id="Desktop-Project-Watoobi-V03" transform="translate(-157.000000, -1044.000000)" fill="#FFFFFF" fill-rule="nonzero">
            <g id="Participants" transform="translate(150.000000, 1036.000000)">
                <g id="participate-icon">
                    <path d="M28.359937,15.2768305 C28.7697625,15.7006321 29,16.2754306 29,16.8747766 C28.999943,17.6906372 28.5746338,18.4431224 27.8872392,18.8435468 C28.0443663,19.1406423 28.1264461,19.4739399 28.1258753,19.812565 C28.1256249,20.5786763 27.7094521,21.2797669 27.0489536,21.6267622 C27.5255589,22.6256654 27.1356898,23.8351596 26.1748289,24.3385668 C26.3083944,24.6179403 26.377795,24.9254263 26.3776258,25.2370781 C26.3776258,25.8246357 26.1215073,26.8189641 24.4108452,26.8189641 L18.7290344,26.8189641 C17.5199152,26.8259336 16.3143471,26.6829962 15.1381301,26.3932107 C14.8706479,26.334455 14.5874315,26.2747953 14.275369,26.2124238 C14.0697837,26.171281 13.9213032,25.9851325 13.9213484,25.7685918 L13.9213484,16.6243867 C13.9212088,16.4756856 13.9918101,16.3364277 14.1101594,16.2519655 C15.775367,15.0632912 17.6363785,12.3514866 17.6363785,9.86928147 C17.6019755,8.96166804 18.2241361,8.16856832 19.090048,8.016215 C19.9423196,7.89418379 21.031479,8.44106438 21.5454643,10.3348079 C21.7301315,11.6809873 21.5735026,13.053686 21.0909195,14.3184489 C21.0690813,14.3872164 21.0804184,14.4626403 21.1214117,14.5213084 C21.162405,14.5799765 21.2280935,14.6147888 21.298087,14.6149395 L26.8146882,14.6149395 C27.3942689,14.6149395 27.9501115,14.8530288 28.359937,15.2768305 Z M12.1910112,16 L12.1910112,27 C12.1910112,27.5522847 11.7483264,28 11.2022471,28 L7.98876403,28 C7.44268474,28 7,27.5522847 7,27 L7,16 C7,15.4477153 7.44268474,15 7.98876403,15 L11.2022471,15 C11.7483264,15 12.1910112,15.4477153 12.1910112,16 Z M10.7078651,25.25 C10.7078651,24.8357864 10.3758516,24.5 9.9662921,24.5 C9.55673263,24.5 9.22471908,24.8357864 9.22471908,25.25 C9.22471908,25.6642136 9.55673263,26 9.9662921,26 C10.3758516,26 10.7078651,25.6642136 10.7078651,25.25 Z" id="icon-participate"></path>
                </g>
            </g>
        </g>
    </g>
</svg>
