<?xml version="1.0" encoding="UTF-8"?>
<svg width="24px" height="24px" viewBox="0 0 24 24" version="1.1" xmlns="http://www.w3.org/2000/svg" xmlns:xlink="http://www.w3.org/1999/xlink">
    <!-- Generator: Sketch 52.5 (67469) - http://www.bohemiancoding.com/sketch -->
    <title>icon-responses</title>
    <desc>Created with Sketch.</desc>
    <g id="Design-V03" stroke="none" stroke-width="1" fill="none" fill-rule="evenodd">
        <g id="Desktop-Project-Watoobi-V03" transform="translate(-546.000000, -1042.000000)" fill="#FFFFFF" fill-rule="nonzero">
            <g id="Group-5" transform="translate(540.000000, 1036.000000)">
                <g id="Survey">
                    <g id="Group-7">
                        <path d="M19.116,12.5 C18.5637153,12.5 18.116,12.0522847 18.116,11.5 C18.116,10.9477153 18.5637153,10.5 19.116,10.5 C19.6682847,10.5 20.116,10.9477153 20.116,11.5 C20.116,12.0522847 19.6682847,12.5 19.116,12.5 Z M22.366,12.5 C21.8137153,12.5 21.366,12.0522847 21.366,11.5 C21.366,10.9477153 21.8137153,10.5 22.366,10.5 C22.9182847,10.5 23.366,10.9477153 23.366,11.5 C23.366,12.0522847 22.9182847,12.5 22.366,12.5 Z M25.616,12.5 C25.0637153,12.5 24.616,12.0522847 24.616,11.5 C24.616,10.9477153 25.0637153,10.5 25.616,10.5 C26.1682847,10.5 26.616,10.9477153 26.616,11.5 C26.616,12.0522847 26.1682847,12.5 25.616,12.5 Z M24.5,6 C27.5375661,6 30,8.46243388 30,11.5 C30,14.5375661 27.5375661,17 24.5,17 L23.85,17 L21.625,18.781 C21.3248159,19.0213397 20.9134097,19.0682591 20.5668181,18.9016819 C20.2202266,18.7351047 19.9998557,18.3845434 20,18 L20,17 C19.4477153,17 19,16.5522847 19,16 C19,15.4477153 19.4477153,15 20,15 L21,15 C21.5209869,14.9998511 21.9548001,15.399725 21.997,15.919 L22.875,15.219 C23.0524122,15.0771313 23.2728397,14.9998935 23.5,15 L24.5,15 C26.4329966,15 27.9999999,13.4329966 27.9999999,11.5 C27.9999999,9.5670034 26.4329966,8.00000003 24.5,8 L18.5,8 C16.8639826,8.00787451 15.4499742,9.14405722 15.09,10.74 C15.0176823,11.0935015 14.7605366,11.3806307 14.4171179,11.491341 C14.0736993,11.6020512 13.6972712,11.5191715 13.4321057,11.2744668 C13.1669402,11.0297621 13.0541638,10.6611856 13.137,10.31 C13.70252,7.79952246 15.9266434,6.01209526 18.5,6 L24.5,6 Z M17.5,23.329 C19.945,24.228 21.713,24.879 22.252,25.955 C22.7346126,27.0751614 22.9889085,28.280347 23,29.5 C23,29.7761424 22.7761424,30 22.5,30 L6.5,30 C6.22385763,30 6,29.7761424 6,29.5 C6.01162249,28.281696 6.26590741,27.077922 6.748,25.959 C7.287,24.883 9.055,24.233 11.501,23.333 L12.133,23.1 C12.3634027,22.5853315 12.3873866,22.0018414 12.2,21.47 C11.1304674,20.3074553 10.6016872,18.7472632 10.744,17.174 C10.744,14.756 12.323,13 14.5,13 C16.677,13 18.256,14.756 18.256,17.177 C18.3984661,18.7578021 17.8659659,20.3251542 16.79,21.492 C16.6160793,22.0193397 16.6445961,22.5925272 16.87,23.1 L17.5,23.329 Z" id="icon-responses"></path>
                    </g>
                </g>
            </g>
        </g>
    </g>
</svg>
