<?xml version="1.0" encoding="UTF-8"?>
<svg width="24px" height="24px" viewBox="0 0 24 24" version="1.1" xmlns="http://www.w3.org/2000/svg" xmlns:xlink="http://www.w3.org/1999/xlink">
    <!-- Generator: Sketch 52.5 (67469) - http://www.bohemiancoding.com/sketch -->
    <title>icon-funnel</title>
    <desc>Created with Sketch.</desc>
    <g id="Design-V03" stroke="none" stroke-width="1" fill="none" fill-rule="evenodd">
        <g id="Desktop-Project-Watoobi-V03" transform="translate(-742.000000, -1290.000000)" fill="#FFFFFF" fill-rule="nonzero">
            <g id="insights" transform="translate(150.000000, 1282.000000)">
                <g id="Group-3-Copy" transform="translate(585.000000, 0.000000)">
                    <path d="M22.9531382,16.3171403 L27.6796888,9.5 L9.41022297,9.5 L13.7586496,15.7717692 C15.3334624,15.3448395 16.9206784,15.4209165 18.5202977,16 C19.9979112,16.5349158 21.4755247,16.6406292 22.9531382,16.3171403 Z M20.1449559,23 L20.1449559,28.8915047 C20.1449559,29.5810848 19.7897165,30.2220246 19.2049537,30.5875013 L16.9449559,32 L16.9449559,23 L7.08914614,8.78488981 C6.93180584,8.55795669 6.98822197,8.24644153 7.21515509,8.08910123 C7.29883086,8.03108603 7.39822448,8 7.5000449,8 L29.5898668,8 C29.8660092,8 30.0898668,8.22385763 30.0898668,8.5 C30.0898668,8.60182042 30.0587808,8.70121404 30.0007656,8.78488981 L20.1449559,23 Z" id="icon-funnel"></path>
                </g>
            </g>
        </g>
    </g>
</svg>
