<?xml version="1.0" encoding="UTF-8"?>
<svg width="3px" height="14px" viewBox="0 0 3 14" version="1.1" xmlns="http://www.w3.org/2000/svg" xmlns:xlink="http://www.w3.org/1999/xlink">
    <!-- Generator: Sketch 52.5 (67469) - http://www.bohemiancoding.com/sketch -->
    <title>!</title>
    <desc>Created with Sketch.</desc>
    <g id="Design-V03" stroke="none" stroke-width="1" fill="none" fill-rule="evenodd">
        <g id="Desktop-Project-Watoobi-V03" transform="translate(-947.000000, -2289.000000)" fill="#FFFFFF">
            <g id="Ideation" transform="translate(0.000000, 1469.000000)">
                <g id="Group-2-Copy-2" transform="translate(930.000000, 808.000000)">
                    <path d="M19.6118164,21.0712891 L17.5024414,21.0712891 L17.2036133,12.203125 L19.9106445,12.203125 L19.6118164,21.0712891 Z M18.5571289,22.4599609 C18.9848654,22.4599609 19.3291003,22.5859362 19.5898438,22.8378906 C19.8505872,23.089845 19.980957,23.4121074 19.980957,23.8046875 C19.980957,24.1914082 19.8505872,24.5107409 19.5898438,24.7626953 C19.3291003,25.0146497 18.9848654,25.140625 18.5571289,25.140625 C18.1352518,25.140625 17.7939466,25.0146497 17.5332031,24.7626953 C17.2724596,24.5107409 17.1420898,24.1914082 17.1420898,23.8046875 C17.1420898,23.4179668 17.2724596,23.0971692 17.5332031,22.8422852 C17.7939466,22.5874011 18.1352518,22.4599609 18.5571289,22.4599609 Z" id="!"></path>
                </g>
            </g>
        </g>
    </g>
</svg>
