<?xml version="1.0" encoding="UTF-8"?>
<svg width="23px" height="24px" viewBox="0 0 23 24" version="1.1" xmlns="http://www.w3.org/2000/svg" xmlns:xlink="http://www.w3.org/1999/xlink">
    <!-- Generator: Sketch 52.5 (67469) - http://www.bohemiancoding.com/sketch -->
    <title>icon-calls</title>
    <desc>Created with Sketch.</desc>
    <g id="Design-V03" stroke="none" stroke-width="1" fill="none" fill-rule="evenodd" stroke-linecap="round" stroke-linejoin="round">
        <g id="Desktop-Project-Watoobi-V03" transform="translate(-937.000000, -1042.000000)" fill="#FFFFFF">
            <g id="Group-6" transform="translate(930.000000, 1036.000000)">
                <g id="Phone-calls">
                    <g id="Group" transform="translate(7.000000, 6.000000)">
                        <path d="M11.6206117,22.5861797 C7.32051257,19.6805178 3.61706188,15.9777461 0.710611724,11.6781797 L0.704611724,11.6681797 C-0.428993051,9.88843043 -0.173699046,7.56001605 1.31861172,6.06817968 L1.94861172,5.43917968 C2.5343615,4.85360677 3.48386195,4.85360677 4.06961172,5.43917968 L6.72161172,8.09017968 C7.00312424,8.37151183 7.16129149,8.75318838 7.16129149,9.15117968 C7.16129149,9.54917098 7.00312424,9.93084753 6.72161172,10.2121797 C6.13603882,10.7979295 6.13603882,11.7474299 6.72161172,12.3331797 L10.9656117,16.5751797 C11.2469439,16.8566922 11.6286204,17.0148594 12.0266117,17.0148594 C12.424603,17.0148594 12.8062796,16.8566922 13.0876117,16.5751797 C13.6733615,15.9896068 14.6228619,15.9896068 15.2086117,16.5751797 L17.8606117,19.2271797 C18.4461846,19.8129295 18.4461846,20.7624299 17.8606117,21.3481797 L17.2306117,21.9781797 C15.7387754,23.4704905 13.410361,23.7257845 11.6306117,22.5921797 L11.6206117,22.5861797 Z M10,9.75 C9.58578644,9.75 9.25,9.41421356 9.25,9 C9.25,8.58578644 9.58578644,8.25 10,8.25 C12.8994949,8.25 15.25,10.6005051 15.25,13.5 C15.25,13.9142136 14.9142136,14.25 14.5,14.25 C14.0857864,14.25 13.75,13.9142136 13.75,13.5 C13.75,11.4289322 12.0710678,9.75 10,9.75 Z M10,5.75 C9.58578644,5.75 9.25,5.41421356 9.25,5 C9.25,4.58578644 9.58578644,4.25 10,4.25 C12.3869484,4.25 14.6761336,5.19821156 16.363961,6.88603897 C18.0517884,8.57386638 19,10.8630516 19,13.25 C19,13.6642136 18.6642136,14 18.25,14 C17.8357864,14 17.5,13.6642136 17.5,13.25 C17.5,11.2608763 16.7098237,9.35322198 15.3033009,7.94669914 C13.896778,6.5401763 11.9891237,5.75 10,5.75 Z M10,1.75 C9.58578644,1.75 9.25,1.41421356 9.25,1 C9.25,0.585786438 9.58578644,0.25 10,0.25 C17.0416306,0.25 22.75,5.95836944 22.75,13 C22.75,13.4142136 22.4142136,13.75 22,13.75 C21.5857864,13.75 21.25,13.4142136 21.25,13 C21.25,6.78679656 16.2132034,1.75 10,1.75 Z" id="icon-calls"></path>
                    </g>
                </g>
            </g>
        </g>
    </g>
</svg>
