<?xml version="1.0" encoding="UTF-8"?>
<svg width="10px" height="13px" viewBox="0 0 10 13" version="1.1" xmlns="http://www.w3.org/2000/svg" xmlns:xlink="http://www.w3.org/1999/xlink">
    <!-- Generator: Sketch 52.5 (67469) - http://www.bohemiancoding.com/sketch -->
    <title>2</title>
    <desc>Created with Sketch.</desc>
    <g id="Design-V03" stroke="none" stroke-width="1" fill="none" fill-rule="evenodd">
        <g id="Desktop-Project-Watoobi-V03" transform="translate(-553.000000, -2289.000000)" fill="#FFFFFF">
            <g id="Ideation" transform="translate(0.000000, 1469.000000)">
                <g id="Group-2-Copy" transform="translate(540.000000, 808.000000)">
                    <path d="M22.9780273,25 L14.206543,25 L14.206543,23.2597656 L18.3461914,18.8476562 C18.9145536,18.2265594 19.3349596,17.6845726 19.6074219,17.2216797 C19.8798842,16.7587867 20.0161133,16.319338 20.0161133,15.9033203 C20.0161133,15.3349581 19.87256,14.8881852 19.5854492,14.5629883 C19.2983384,14.2377913 18.8881863,14.0751953 18.3549805,14.0751953 C17.7807588,14.0751953 17.3281267,14.2729472 16.9970703,14.668457 C16.666014,15.0639668 16.5004883,15.5839812 16.5004883,16.2285156 L13.9516602,16.2285156 C13.9516602,15.4492149 14.1376935,14.7373079 14.5097656,14.0927734 C14.8818378,13.448239 15.4077114,12.9428729 16.0874023,12.5766602 C16.7670932,12.2104474 17.5375933,12.0273438 18.3989258,12.0273438 C19.7172917,12.0273438 20.7412073,12.3437468 21.4707031,12.9765625 C22.200199,13.6093782 22.5649414,14.5029239 22.5649414,15.6572266 C22.5649414,16.2900422 22.4008805,16.934567 22.0727539,17.5908203 C21.7446273,18.2470736 21.1821329,19.0117144 20.3852539,19.8847656 L17.4760742,22.9521484 L22.9780273,22.9521484 L22.9780273,25 Z" id="2"></path>
                </g>
            </g>
        </g>
    </g>
</svg>
