<?xml version="1.0" encoding="UTF-8"?>
<svg width="120px" height="120px" viewBox="0 0 120 120" version="1.1" xmlns="http://www.w3.org/2000/svg" xmlns:xlink="http://www.w3.org/1999/xlink">
    <!-- Generator: Sketch 52.6 (67491) - http://www.bohemiancoding.com/sketch -->
    <title>Ideation</title>
    <desc>Created with Sketch.</desc>
    <g id="Design-V04" stroke="none" stroke-width="1" fill="none" fill-rule="evenodd">
        <g id="Project:-Watoobi" transform="translate(-660.000000, -1188.000000)">
            <g id="Process" transform="translate(255.000000, 1100.000000)">
                <g id="Ideation" transform="translate(405.000000, 88.000000)">
                    <circle id="Oval-Copy-8" fill="#FFFFFF" cx="60" cy="60" r="60"></circle>
                    <path d="M56,26 L56,62 L64,62 L64,26 L56,26 Z M54,24 L66,24 L66,64 L54,64 L54,24 Z M54,66 L66,66 L60,74 L54,66 Z M59.7350005,76.4239992 C59.5008323,76.277644 59.4296457,75.9691688 59.5760008,75.7350005 C59.722356,75.5008323 60.0308312,75.4296457 60.2649995,75.5760008 L68.2649995,80.5760008 C68.6572647,80.8211666 68.5348986,81.4217366 68.0779813,81.4938815 L51.5560241,84.1026116 L78.1173203,90.5139589 C78.6540211,90.6435074 78.6156495,91.4192926 78.0687842,91.4952461 L42.0687842,96.4952461 C41.7952673,96.5332346 41.5427423,96.3423011 41.5047539,96.0687842 C41.4667654,95.7952673 41.6576989,95.5427423 41.9312158,95.5047539 L75.3198935,90.8674375 L48.8826797,84.4860411 C48.3510386,84.3577139 48.3818017,83.5914159 48.9220187,83.5061185 L66.6002995,80.714811 L59.7350005,76.4239992 Z" id="Combined-Shape" fill="#FF0052" fill-rule="nonzero"></path>
                </g>
            </g>
        </g>
    </g>
</svg>
