<?xml version="1.0" encoding="UTF-8"?>
<svg width="27px" height="21px" viewBox="0 0 27 21" version="1.1" xmlns="http://www.w3.org/2000/svg" xmlns:xlink="http://www.w3.org/1999/xlink">
    <title>“</title>
    <g id="Design-V05" stroke="none" stroke-width="1" fill="none" fill-rule="evenodd">
        <g id="Homepage-V03" transform="translate(-437.000000, -4260.000000)" fill="#FF0052" fill-rule="nonzero">
            <g id="01" transform="translate(431.000000, 4228.000000)">
                <path d="M25.648,52.24 C26.944,52.24 28.144,51.916 29.248,51.268 C30.352,50.62 31.228,49.744 31.876,48.64 C32.524,47.536 32.848,46.336 32.848,45.04 C32.848,42.448 31.456,41.152 28.672,41.152 C27.808,41.152 26.992,41.344 26.224,41.728 C25.456,42.112 24.76,42.616 24.136,43.24 C24.28,41.176 25.096,39.304 26.584,37.624 C28.072,35.944 29.872,34.576 31.984,33.52 L31.984,33.52 L31.624,32.368 C28.312,33.856 25.696,35.92 23.776,38.56 C21.856,41.2 20.896,44.032 20.896,47.056 C20.896,48.832 21.304,50.14 22.12,50.98 C22.936,51.82 24.112,52.24 25.648,52.24 Z M11.464,52.24 C12.808,52.24 14.02,51.916 15.1,51.268 C16.18,50.62 17.044,49.744 17.692,48.64 C18.34,47.536 18.664,46.336 18.664,45.04 C18.664,42.448 17.272,41.152 14.488,41.152 C13.672,41.152 12.88,41.344 12.112,41.728 C11.344,42.112 10.648,42.616 10.024,43.24 C10.168,41.176 10.984,39.304 12.472,37.624 C13.96,35.944 15.736,34.576 17.8,33.52 L17.8,33.52 L17.44,32.368 C14.128,33.856 11.512,35.92 9.592,38.56 C7.672,41.2 6.712,44.032 6.712,47.056 C6.712,48.832 7.12,50.14 7.936,50.98 C8.752,51.82 9.928,52.24 11.464,52.24 Z" id="“"></path>
            </g>
        </g>
    </g>
</svg>