<?xml version="1.0" encoding="UTF-8"?>
<svg width="120px" height="120px" viewBox="0 0 120 120" version="1.1" xmlns="http://www.w3.org/2000/svg" xmlns:xlink="http://www.w3.org/1999/xlink">
    <!-- Generator: Sketch 52.6 (67491) - http://www.bohemiancoding.com/sketch -->
    <title>Research</title>
    <desc>Created with Sketch.</desc>
    <g id="Design-V04" stroke="none" stroke-width="1" fill="none" fill-rule="evenodd">
        <g id="Project:-Watoobi" transform="translate(-458.000000, -1188.000000)">
            <g id="Process" transform="translate(255.000000, 1100.000000)">
                <g id="Research" transform="translate(203.000000, 88.000000)">
                    <circle id="Oval-Copy-3" fill="#FFFFFF" cx="60" cy="60" r="60"></circle>
                    <path d="M64.0763225,62.7068237 L88,86.6305012 L86.6305012,88 L62.7068237,64.0763225 C59.4467386,67.0118748 55.1316426,68.7985108 50.3992554,68.7985108 C40.2376272,68.7985108 32,60.5608836 32,50.3992554 C32,40.2376272 40.2376272,32 50.3992554,32 C60.5608836,32 68.7985108,40.2376272 68.7985108,50.3992554 C68.7985108,55.1316426 67.0118748,59.4467386 64.0763225,62.7068237 Z M50.3992554,66.8617471 C59.4912385,66.8617471 66.8617471,59.4912385 66.8617471,50.3992554 C66.8617471,41.3072723 59.4912385,33.9367637 50.3992554,33.9367637 C41.3072723,33.9367637 33.9367637,41.3072723 33.9367637,50.3992554 C33.9367637,59.4912385 41.3072723,66.8617471 50.3992554,66.8617471 Z" id="Combined-Shape" fill="#FF0052" fill-rule="nonzero"></path>
                </g>
            </g>
        </g>
    </g>
</svg>
