<?xml version="1.0" encoding="UTF-8"?>
<svg width="120px" height="120px" viewBox="0 0 120 120" version="1.1" xmlns="http://www.w3.org/2000/svg" xmlns:xlink="http://www.w3.org/1999/xlink">
    <!-- Generator: Sketch 52.6 (67491) - http://www.bohemiancoding.com/sketch -->
    <title>Usability Testing</title>
    <desc>Created with Sketch.</desc>
    <g id="Design-V04" stroke="none" stroke-width="1" fill="none" fill-rule="evenodd">
        <g id="Project:-Watoobi" transform="translate(-863.000000, -1188.000000)">
            <g id="Process" transform="translate(255.000000, 1100.000000)">
                <g id="Usability-Testing" transform="translate(608.000000, 88.000000)">
                    <circle id="Oval-Copy-5" fill="#FFFFFF" cx="60" cy="60" r="60"></circle>
                    <path d="M70.7900729,47.6159979 C79.5953361,50.3058209 86,58.495598 86,68.1812644 C86,77.7898445 79.6968775,85.9262514 70.9998531,88.6812644 L71,94.6812644 L58,94.6812644 L58,88.6812644 C53.522925,87.2629857 49.6801309,84.4185391 47.0051044,80.6812644 L35,80.6812644 L35,74.6812644 L63,74.6812644 L63,80.6812644 L49.5327516,80.6812644 C53.1097806,84.9597286 58.4870659,87.6812644 64.5,87.6812644 C75.2695526,87.6812644 84,78.950817 84,68.1812644 C84,59.3216165 78.0915427,51.8419627 70,49.467675 L70,49.3103148 L60.6433336,69.3757507 L57.9244102,68.1078959 L56.6565554,70.8268192 L53.0313243,69.1363462 L54.2991791,66.4174228 L52.4865635,65.5721863 L51.2187087,68.2911097 L47.5934776,66.6006366 L48.8613324,63.8817133 L46.142409,62.6138585 L61.7792847,29.0804704 L59.0603613,27.8126156 L59.9055978,26 L79.8443692,35.2976018 L78.9991326,37.1102173 L76.2802093,35.8423625 L70.7900729,47.6159979 Z M37,76.6812644 L37,78.6812644 L61,78.6812644 L61,76.6812644 L37,76.6812644 Z M63.5919003,29.9257069 L48.8002611,61.6464794 L59.6759545,66.7178986 L74.4675937,34.997126 L63.5919003,29.9257069 Z" id="Combined-Shape" fill="#FF0052" fill-rule="nonzero"></path>
                </g>
            </g>
        </g>
    </g>
</svg>
