<?xml version="1.0" encoding="UTF-8"?>
<svg width="262px" height="78px" viewBox="0 0 262 78" version="1.1" xmlns="http://www.w3.org/2000/svg" xmlns:xlink="http://www.w3.org/1999/xlink">
    <!-- Generator: Sketch 48 (47235) - http://www.bohemiancoding.com/sketch -->
    <title>Group</title>
    <desc>Created with Sketch.</desc>
    <defs></defs>
    <g id="Logo-/-Logo-+-Name" stroke="none" stroke-width="1" fill="none" fill-rule="evenodd" transform="translate(0.000000, -1.000000)">
        <g id="Group" fill-rule="nonzero">
            <path d="M72,60.5 C71.2897779,60.5042869 70.6351046,60.8849109 70.28,61.5 L68,61.5 L68,59.5 C68,57.8431458 66.6568542,56.5 65,56.5 L64,56.5 L64,39.5 C70.627417,39.2238576 75.7761424,33.627417 75.5,27 C75.2238576,20.372583 69.627417,15.2238576 63,15.5 C61.9459491,15.5006158 60.8966921,15.6418619 59.88,15.92 C56.3520144,6.91705985 47.6695198,0.994123862 38,0.994123862 C28.3304802,0.994123862 19.6479856,6.91705985 16.12,15.92 C15.1033079,15.6418619 14.0540509,15.5006158 13,15.5 C6.37258307,15.2238577 0.776142551,20.3725831 0.500000179,27 C0.223857807,33.6274169 5.37258308,39.2238575 12,39.5 L12,56.5 L11,56.5 C9.34314575,56.5 8,57.8431458 8,59.5 L8,61.5 L5.72,61.5 C5.26739432,60.716064 4.34467813,60.3338624 3.4703111,60.5681483 C2.59594407,60.8024343 1.98794919,61.5947886 1.98794919,62.5 C1.98794919,63.4052114 2.59594407,64.1975657 3.4703111,64.4318517 C4.34467813,64.6661376 5.26739432,64.283936 5.72,63.5 L8,63.5 L8,65.5 C8,67.1568542 9.34314575,68.5 11,68.5 L12,68.5 L12,70.5 C12,74.918278 15.581722,78.5 20,78.5 L56,78.5 C60.418278,78.5 64,74.918278 64,70.5 L64,68.5 L65,68.5 C66.6568542,68.5 68,67.1568542 68,65.5 L68,63.5 L70.28,63.5 C70.7660656,64.3418497 71.7870648,64.7122842 72.6998631,64.3779642 C73.6126615,64.0436442 74.1528813,63.1014004 73.9802345,62.1447584 C73.8075876,61.1881165 72.9720785,60.4941529 72,60.5 Z" id="Shape" fill="#FFFFFF"></path>
            <path d="M72,60.5 C71.2897779,60.5042869 70.6351046,60.8849109 70.28,61.5 L68,61.5 L68,59.5 C68,57.8431458 66.6568542,56.5 65,56.5 L64,56.5 L64,39.5 C70.627417,39.2238576 75.7761424,33.627417 75.5,27 C75.2238576,20.372583 69.627417,15.2238576 63,15.5 C61.9459491,15.5006158 60.8966921,15.6418619 59.88,15.92 C56.3520144,6.91705985 47.6695198,0.994123862 38,0.994123862 C28.3304802,0.994123862 19.6479856,6.91705985 16.12,15.92 C15.1033079,15.6418619 14.0540509,15.5006158 13,15.5 C6.37258307,15.2238577 0.776142551,20.3725831 0.500000179,27 C0.223857807,33.6274169 5.37258308,39.2238575 12,39.5 L12,56.5 L11,56.5 C9.34314575,56.5 8,57.8431458 8,59.5 L8,61.5 L5.72,61.5 C5.26739432,60.716064 4.34467813,60.3338624 3.4703111,60.5681483 C2.59594407,60.8024343 1.98794919,61.5947886 1.98794919,62.5 C1.98794919,63.4052114 2.59594407,64.1975657 3.4703111,64.4318517 C4.34467813,64.6661376 5.26739432,64.283936 5.72,63.5 L8,63.5 L8,65.5 C8,67.1568542 9.34314575,68.5 11,68.5 L12,68.5 L12,70.5 C12,74.918278 15.581722,78.5 20,78.5 L56,78.5 C60.418278,78.5 64,74.918278 64,70.5 L64,68.5 L65,68.5 C66.6568542,68.5 68,67.1568542 68,65.5 L68,63.5 L70.28,63.5 C70.7660656,64.3418497 71.7870648,64.7122842 72.6998631,64.3779642 C73.6126615,64.0436442 74.1528813,63.1014004 73.9802345,62.1447584 C73.8075876,61.1881165 72.9720785,60.4941529 72,60.5 Z M12,66.5 L11,66.5 C10.4477153,66.5 10,66.0522847 10,65.5 L10,59.5 C10,58.9477153 10.4477153,58.5 11,58.5 L12,58.5 L12,66.5 Z M62,70.5 C62,73.8137085 59.3137085,76.5 56,76.5 L20,76.5 C16.6862915,76.5 14,73.8137085 14,70.5 L14,48.5 L62,48.5 L62,70.5 Z M63,37.5 C62.4477153,37.5 62,37.9477153 62,38.5 L62,46.5 L14,46.5 L14,38.5 C14,37.9477153 13.5522847,37.5 13,37.5 C9.00674438,37.5086573 5.39115174,35.140772 3.80309497,31.4768614 C2.21503821,27.8129508 2.95899545,23.5554963 5.69548297,20.6472664 C8.43197049,17.7390364 12.6363215,16.7376259 16.39,18.1 C16.6405974,18.1895773 16.9165642,18.1755708 17.1568044,18.0610813 C17.3970446,17.9465919 17.5817396,17.7410643 17.67,17.49 C20.6606797,8.81911265 28.8228436,3.00030491 37.995,3.00030491 C47.1671564,3.00030491 55.3293203,8.81911265 58.32,17.49 C58.4082604,17.7410643 58.5929554,17.9465919 58.8331956,18.0610813 C59.0734358,18.1755708 59.3494026,18.1895773 59.6,18.1 C63.3525445,16.7380168 67.5556267,17.7383702 70.2922664,20.64481 C73.028906,23.5512498 73.7747372,27.8068746 72.1895943,31.4707402 C70.6044515,35.1346057 66.992063,37.5046809 63,37.5 Z M66,65.5 C66,66.0522847 65.5522847,66.5 65,66.5 L64,66.5 L64,58.5 L65,58.5 C65.5522847,58.5 66,58.9477153 66,59.5 L66,65.5 Z M18.5,33 C19.0444587,33.0108913 19.4801089,33.4554324 19.48,34 L19.48,41.5 C19.48,42.0522847 19.0322847,42.5 18.48,42.5 C17.9277153,42.5 17.48,42.0522847 17.48,41.5 L17.48,34.97 C12.43,34.59 10.38,31.44 10,29.72 C9.87849736,29.1677153 10.2277153,28.6215026 10.78,28.5 C11.3322847,28.3784974 11.8784974,28.7277153 12,29.28 C12,29.45 13,33 18.5,33 Z" id="Combined-Shape" fill="#000000"></path>
            <path d="M25,66.5 C22.790861,66.5 21,64.709139 21,62.5 C21,60.290861 22.790861,58.5 25,58.5 C27.209139,58.5 29,60.290861 29,62.5 C29,64.709139 27.209139,66.5 25,66.5 Z M51,66.5 C48.790861,66.5 47,64.709139 47,62.5 C47,60.290861 48.790861,58.5 51,58.5 C53.209139,58.5 55,60.290861 55,62.5 C55,64.709139 53.209139,66.5 51,66.5 Z" id="Combined-Shape" fill="#17C981"></path>
            <path d="M88.53,64 L88.53,45.42 C88.53,41.06 89.7,37.84 92.04,35.76 C94.5693181,33.6129921 97.8153097,32.4988563 101.13,32.64 C104.93,32.64 107.93,33.61 110.13,35.55 C112.259044,37.2937331 113.4835,39.9081132 113.46,42.66 C113.53719,43.3328192 113.378113,44.0115488 113.01,44.58 C112.589272,44.9463953 112.034626,45.1204019 111.48,45.06 C110.24,45.06 109.573333,44.56 109.48,43.56 C109.442084,42.9749694 109.361874,42.3934502 109.24,41.82 C109.082609,41.161556 108.840595,40.5262711 108.52,39.93 C108.166041,39.238795 107.688109,38.6184992 107.11,38.1 C106.396355,37.5089228 105.569434,37.0699398 104.68,36.81 C103.51416,36.4523102 102.299317,36.2802075 101.08,36.3 C95.32,36.3 92.44,39.34 92.44,45.42 L92.44,64 C92.44,70.12 95.4,73.18 101.32,73.18 C102.751419,73.2233347 104.177682,72.98902 105.52,72.49 C106.538977,72.1143645 107.404292,71.4108565 107.98,70.49 C108.402704,69.7829959 108.738469,69.0275253 108.98,68.24 C109.193374,67.4430275 109.343837,66.6305302 109.43,65.81 C109.55,64.77 110.216667,64.25 111.43,64.25 C111.988976,64.1977239 112.544185,64.3827938 112.96,64.76 C113.335492,65.3550975 113.494415,66.0614233 113.41,66.76 C113.433091,69.5505072 112.185617,72.2000095 110.02,73.96 C107.76,75.92 104.71,76.9 100.87,76.9 C97.5812295,77.0503556 94.3600394,75.9336763 91.87,73.78 C89.6433333,71.6733333 88.53,68.4133333 88.53,64 Z M117.81,74.94 L117.81,32.22 C117.819303,31.8193793 118.020114,31.4475059 118.35,31.22 C118.74937,30.9281749 119.235769,30.7801406 119.73,30.8 C120.233119,30.7833209 120.728013,30.9307362 121.14,31.22 C121.482572,31.4396145 121.695591,31.8133321 121.71,32.22 L121.71,52.38 C123.282574,49.4842268 126.335262,47.7034923 129.63,47.76 C132.47616,47.7468243 135.193083,48.9470717 137.1,51.06 C139.16997,53.1786573 140.304541,56.0384952 140.25,59 L140.25,75 C140.264453,75.451819 140.050127,75.8804709 139.68,76.14 C139.268335,76.4299284 138.773213,76.5774115 138.27,76.56 C137.796884,76.5616185 137.335191,76.4147161 136.95,76.14 C136.565558,75.8900175 136.338404,75.4584234 136.35,75 L136.35,59 C136.340501,57.0179607 135.541575,55.1214114 134.13,53.73 C132.839785,52.2815317 131.00637,51.4333837 129.067132,51.3878884 C127.127893,51.342393 125.256722,52.1036299 123.9,53.49 C122.420164,54.9320016 121.623826,56.9355731 121.71,59 L121.71,74.94 C121.692892,75.3748651 121.470187,75.7757341 121.11,76.02 C120.720138,76.3361899 120.231929,76.5060015 119.73,76.5 C119.236164,76.5122112 118.755279,76.3412302 118.38,76.02 C118.033567,75.7672078 117.823219,75.3686552 117.81,74.94 Z M144.69,65.52 L144.69,58.8 C144.644968,55.8497481 145.846881,53.0174466 148,51 C152.439894,46.6910754 159.480101,46.6250734 164,50.85 C166.185606,52.8504026 167.399742,55.6979705 167.33,58.66 C167.360331,59.5726873 167.228279,60.4835053 166.94,61.35 C166.726609,61.9775385 166.273659,62.4951957 165.68,62.79 C165.177933,63.0436413 164.642692,63.225421 164.09,63.33 C163.427489,63.4221549 162.758777,63.4622776 162.09,63.45 L148.59,63.45 L148.59,65.7 C148.508031,67.884488 149.451289,69.9818498 151.14,71.37 C153.003728,72.8448659 155.335437,73.6008082 157.71,73.5 C158.927038,73.524844 160.137949,73.3213296 161.28,72.9 C162.10772,72.600823 162.894029,72.1975877 163.62,71.7 C163.981847,71.3778093 164.43046,71.1691522 164.91,71.1 C165.377653,71.1132725 165.811495,71.3468797 166.08,71.73 C166.385499,72.0697135 166.565479,72.5037833 166.59,72.96 C166.59,73.8 165.73,74.67 164.01,75.57 C162.010142,76.5310274 159.807544,76.9941905 157.59,76.92 C154.206037,77.0637889 150.890047,75.9406312 148.29,73.77 C145.904041,71.7059847 144.580527,68.6729311 144.69,65.52 Z M148.59,60.6 L160.59,60.6 C161.409904,60.6694622 162.234278,60.5355014 162.99,60.21 C163.454757,59.80017 163.680553,59.1829921 163.59,58.57 C163.601274,56.6073627 162.835539,54.7199878 161.46,53.32 C160.080594,51.8250724 158.12343,50.9977426 156.09,51.05 C154.101202,51.0143685 152.183763,51.7907326 150.78,53.2 C149.36263,54.5270353 148.567976,56.3884867 148.59,58.33 L148.59,60.6 Z M172.65,75 L172.65,41.67 C172.614461,38.7504326 173.761458,35.9406486 175.83,33.88 C177.755779,31.7781993 180.479382,30.587077 183.33,30.6 L184.83,30.6 C185.294564,30.5934577 185.736608,30.7997448 186.03,31.16 C186.344591,31.5194606 186.515504,31.9823501 186.51,32.46 C186.518764,32.9292206 186.346926,33.3838751 186.03,33.73 C185.727329,34.0744378 185.288452,34.2682752 184.83,34.26 L183.83,34.26 C181.89641,34.2162319 180.033939,34.9895384 178.7,36.39 C177.351732,37.734698 176.58663,39.5558563 176.57,41.46 L176.57,48.12 L185.15,48.12 C185.542784,48.112803 185.915,48.2951892 186.15,48.61 C186.404228,48.9200075 186.542174,49.3090863 186.54,49.71 C186.55512,50.149548 186.417283,50.5807284 186.15,50.93 C185.915,51.2448108 185.542784,51.427197 185.15,51.42 L176.57,51.42 L176.57,75 C176.570385,75.4395773 176.343429,75.8480971 175.97,76.08 C175.545716,76.3671094 175.042106,76.5139958 174.53,76.5 C174.054937,76.5149277 173.58909,76.3667036 173.21,76.08 C172.857356,75.8337602 172.648052,75.4301021 172.65,75 Z M192.33,75 L192.33,34.14 C192.309807,33.7023028 192.513169,33.2842802 192.87,33.03 C193.237215,32.7680531 193.679015,32.6313056 194.13,32.64 L204,32.64 C205.61001,32.6193691 207.218038,32.7600716 208.8,33.06 C210.14736,33.335328 211.43657,33.8428908 212.61,34.56 C213.812688,35.3071611 214.75557,36.4071894 215.31,37.71 C215.977419,39.3355399 216.294322,41.0836181 216.24,42.84 C216.307568,45.0217622 215.833438,47.1862678 214.86,49.14 C214.072629,50.7333566 212.758309,52.0052793 211.14,52.74 C213.006046,53.4354355 214.60996,54.6934069 215.73,56.34 C216.901509,58.3779967 217.454013,60.7131076 217.32,63.06 L217.32,64.14 C217.32,68.46 216.24,71.6 214.08,73.56 C211.680519,75.6063324 208.589602,76.6581029 205.44,76.5 L194.13,76.5 C193.648145,76.5279372 193.174451,76.3664506 192.81,76.05 C192.50534,75.7861412 192.330207,75.4030371 192.33,75 Z M196.23,51 L204.09,51 C206.93,51 209,50.41 210.3,49.23 C211.6,48.05 212.266667,46.05 212.3,43.23 C212.3,40.63 211.58,38.82 210.14,37.8 C208.265342,36.6640304 206.087506,36.1300418 203.9,36.27 L196.28,36.27 L196.23,51 Z M196.23,72.84 L204.93,72.84 C210.53,72.84 213.33,69.88 213.33,63.96 L213.33,62.96 C213.33,57.28 210.53,54.44 204.93,54.44 L196.23,54.44 L196.23,72.84 Z M220.89,65.52 L220.89,59 C220.865868,56.017545 222.083039,53.1593659 224.25,51.11 C226.348718,48.9521629 229.240034,47.7486524 232.25,47.78 C235.251096,47.7637368 238.133169,48.9525918 240.25,51.08 C242.466607,53.113654 243.716775,55.9919477 243.69,59 L243.69,65.54 C243.69,71.8360461 238.586046,76.94 232.29,76.94 C225.993954,76.94 220.89,71.8360461 220.89,65.54 L220.89,65.52 Z M224.79,65.52 C224.794991,67.5332913 225.588315,69.4645512 227,70.9 C228.323467,72.4127936 230.240049,73.2743428 232.25,73.26 C234.28659,73.278017 236.2323,72.4181154 237.59,70.9 C239.013871,69.4636615 239.811907,67.5224918 239.81,65.5 L239.81,59 C239.796195,57.0187009 238.985213,55.1264102 237.56,53.75 C236.198516,52.2582359 234.269637,51.4118539 232.25,51.42 C230.247262,51.4098685 228.336104,52.258059 227,53.75 C225.597913,55.1387942 224.803249,57.0265708 224.79,59 L224.79,65.52 Z M248.19,67.69 L248.19,36.12 C248.207421,35.7064694 248.433318,35.3299745 248.79,35.12 C249.175191,34.8452839 249.636884,34.6983815 250.11,34.7 C250.602561,34.6925409 251.085109,34.8394033 251.49,35.12 C251.846682,35.3299745 252.072579,35.7064694 252.09,36.12 L252.09,48.12 L259.83,48.12 C260.222784,48.112803 260.595,48.2951892 260.83,48.61 C261.350044,49.2959049 261.350044,50.2440951 260.83,50.93 C260.596098,51.2461306 260.223154,51.4288729 259.83,51.42 L252.09,51.42 L252.09,67.6 C252.09,69.5466667 252.5,70.9066667 253.32,71.68 C254.14,72.4533333 255.59,72.84 257.67,72.84 L259.35,72.84 C259.835547,72.8265919 260.304126,73.0191091 260.64,73.37 C260.974371,73.7071953 261.158293,74.1651995 261.15,74.64 C261.154249,75.1229323 260.971493,75.5887816 260.64,75.94 C260.313389,76.3074445 259.841466,76.5123101 259.35,76.5 L257.67,76.5 C251.35,76.5 248.19,73.5633333 248.19,67.69 Z" id="Combined-Shape" fill="#000000"></path>
        </g>
    </g>
</svg>
