<?xml version="1.0" encoding="UTF-8"?>
<svg width="20px" height="20px" viewBox="0 0 20 20" version="1.1" xmlns="http://www.w3.org/2000/svg" xmlns:xlink="http://www.w3.org/1999/xlink">
    <!-- Generator: Sketch 48.2 (47327) - http://www.bohemiancoding.com/sketch -->
    <title>Icons/information</title>
    <desc>Created with Sketch.</desc>
    <defs>
        <path d="M10,0 C15.5228475,-1.01453063e-15 20,4.4771525 20,10 C20,15.5228475 15.5228475,20 10,20 C4.4771525,20 6.76353751e-16,15.5228475 0,10 C-6.76353751e-16,4.4771525 4.4771525,1.01453063e-15 10,0 Z M10.0703125,4.46875 C9.79947781,4.46875 9.58984449,4.54687422 9.44140625,4.703125 C9.29296801,4.85937578 9.21875,5.05729047 9.21875,5.296875 C9.21875,5.53125117 9.29296801,5.72525965 9.44140625,5.87890625 C9.58984449,6.03255285 9.79947781,6.109375 10.0703125,6.109375 C10.3411472,6.109375 10.5533846,6.03255285 10.7070312,5.87890625 C10.8606779,5.72525965 10.9375,5.53125117 10.9375,5.296875 C10.9375,5.05729047 10.8606779,4.85937578 10.7070312,4.703125 C10.5533846,4.54687422 10.3411472,4.46875 10.0703125,4.46875 Z M9.328125,16 L10.7890625,16 L10.7890625,7.546875 L9.328125,7.546875 L9.328125,16 Z" id="path-1"></path>
    </defs>
    <g id="Post" stroke="none" stroke-width="1" fill="none" fill-rule="evenodd" transform="translate(-964.000000, -10.000000)">
        <g id="Menu" transform="translate(929.000000, 10.000000)">
            <g id="Icons/information" transform="translate(35.000000, 0.000000)">
                <g id="Combined-Shape">
                    <use fill="#000000" fill-rule="evenodd" xlink:href="#path-1"></use>
                    <path stroke="#000000" stroke-width="1" d="M10,0.5 C4.75329488,0.5 0.5,4.75329488 0.5,10 C0.5,15.2467051 4.75329488,19.5 10,19.5 C15.2467051,19.5 19.5,15.2467051 19.5,10 C19.5,4.75329488 15.2467051,0.5 10,0.5 Z M10.0703125,3.96875 C10.46819,3.96875 10.8097766,4.0944874 11.0635431,4.35255502 C11.3115417,4.60475697 11.4375,4.92925979 11.4375,5.296875 C11.4375,5.66115251 11.3100654,5.98297888 11.0605846,6.23245964 C10.8068171,6.48622718 10.4665952,6.609375 10.0703125,6.609375 C9.67170396,6.609375 9.33141212,6.48467178 9.08181055,6.22631226 C8.84087428,5.97692208 8.71875,5.65768493 8.71875,5.296875 C8.71875,4.9326853 8.83945549,4.610804 9.07890653,4.35875027 C9.32844495,4.09607826 9.6701091,3.96875 10.0703125,3.96875 Z M8.828125,16.5 L8.828125,7.046875 L11.2890625,7.046875 L11.2890625,16.5 L8.828125,16.5 Z"></path>
                </g>
            </g>
        </g>
    </g>
</svg>
