<?xml version="1.0" encoding="UTF-8"?>
<svg width="10px" height="14px" viewBox="0 0 10 14" version="1.1" xmlns="http://www.w3.org/2000/svg" xmlns:xlink="http://www.w3.org/1999/xlink">
    <!-- Generator: Sketch 47.1 (45422) - http://www.bohemiancoding.com/sketch -->
    <title>Icons / Arrow</title>
    <desc>Created with Sketch.</desc>
    <defs></defs>
    <g id="Design-V01" stroke="none" stroke-width="1" fill="none" fill-rule="evenodd">
        <g id="Desktop" transform="translate(-1024.000000, -690.000000)" fill="#8F3DB8">
            <g id="TV" transform="translate(335.000000, 255.000000)">
                <g id="Back" transform="translate(655.000000, 417.000000)">
                    <g id="Icons-/-Arrow" transform="translate(40.000000, 25.000000) scale(-1, 1) translate(-40.000000, -25.000000) translate(32.000000, 17.000000)">
                        <path d="M5.6,1.7 L12.9333333,7.2 L12.9333333,7.2 C13.3751611,7.53137085 13.4647042,8.1581722 13.1333333,8.6 C13.0764791,8.67580567 13.009139,8.74314575 12.9333333,8.8 L5.6,14.3 L5.6,14.3 C5.1581722,14.6313708 4.53137085,14.5418278 4.2,14.1 C4.07017787,13.9269038 4,13.7163702 4,13.5 L4,2.5 L4,2.5 C4,1.94771525 4.44771525,1.5 5,1.5 C5.21637021,1.5 5.42690383,1.57017787 5.6,1.7 Z" id="Path-2"></path>
                    </g>
                </g>
            </g>
        </g>
    </g>
</svg>
