<?xml version="1.0" encoding="UTF-8"?>
<svg width="244px" height="59px" viewBox="0 0 244 59" version="1.1" xmlns="http://www.w3.org/2000/svg" xmlns:xlink="http://www.w3.org/1999/xlink">
    <!-- Generator: Sketch 48.2 (47327) - http://www.bohemiancoding.com/sketch -->
    <title>Logo/Embark-white-icon-logotype</title>
    <desc>Created with Sketch.</desc>
    <defs></defs>
    <g id="Symbols" stroke="none" stroke-width="1" fill="none" fill-rule="evenodd">
        <g id="Logo/Embark-white-icon-logotype" fill="#FFFFFF">
            <path d="M72.24,31 L87.72,31 L86.76,37.12 L78.6,37.12 L78.08,40.04 L77.96,40.72 C77.9333332,40.853334 77.8800004,41.0666652 77.8,41.36 C78.0933348,41.3066664 78.306666,41.28 78.44,41.28 L86.08,41.28 L85.04,47.24 L76.96,47.24 L76.44,50.36 L76.32,51.04 C76.2933332,51.173334 76.2400004,51.373332 76.16,51.64 C76.4533348,51.5866664 76.666666,51.56 76.8,51.56 L84.36,51.56 L83.4,57.68 L68,57.68 L72.24,31 Z M97.52,31 L105.52,31 L107,38.2 L107.4,40.2 C107.506667,40.733336 107.6,41.2399976 107.68,41.72 C107.76,42.2000024 107.833333,42.706664 107.9,43.24 C107.966667,43.773336 108.04,44.4133296 108.12,45.16 L108.32,45.2 C108.586668,44.4799964 108.813332,43.8733358 109,43.38 C109.186668,42.8866642 109.379999,42.4200022 109.58,41.98 C109.780001,41.5399978 109.999999,41.0666692 110.24,40.56 C110.480001,40.0533308 110.786665,39.4400036 111.16,38.72 L115,31 L122.88,31 L124.08,57.68 L116.84,57.68 L116.68,44.56 C116.68,44.2666652 116.706666,43.6933376 116.76,42.84 C116.813334,41.9866624 116.88,41.0666716 116.96,40.08 L116.76,40.04 C116.413332,40.9200044 116.113335,41.6733302 115.86,42.3 C115.606665,42.9266698 115.353335,43.5266638 115.1,44.1 C114.846665,44.6733362 114.573335,45.2733302 114.28,45.9 C113.986665,46.5266698 113.613336,47.2933288 113.16,48.2 L108.4,57.68 L104.72,57.68 L102.84,48.92 C102.626666,47.986662 102.460001,47.18667 102.34,46.52 C102.219999,45.85333 102.113334,45.220003 102.02,44.62 C101.926666,44.019997 101.84,43.4000032 101.76,42.76 C101.68,42.1199968 101.586667,41.333338 101.48,40.4 L101.24,40.4 C101.053332,41.3066712 100.893334,42.0799968 100.76,42.72 C100.626666,43.3600032 100.480001,43.9733304 100.32,44.56 C100.159999,45.1466696 99.9866676,45.7599968 99.8,46.4 C99.6133324,47.0400032 99.3733348,47.826662 99.08,48.76 L96.32,57.68 L89,57.68 L97.52,31 Z M134.28,31 L144.72,31 C145.280003,31 145.89333,31.0399996 146.56,31.12 C147.22667,31.2000004 147.826664,31.306666 148.36,31.44 C149.800007,31.8133352 150.926663,32.5266614 151.74,33.58 C152.553337,34.6333386 152.96,35.9333256 152.96,37.48 C152.96,38.4400048 152.780002,39.3399958 152.42,40.18 C152.059998,41.0200042 151.54667,41.7199972 150.88,42.28 C150.506665,42.5733348 150.120002,42.8133324 149.72,43 C149.319998,43.1866676 148.78667,43.3866656 148.12,43.6 L148.12,43.76 C149.826675,44.3733364 151.03333,45.1066624 151.74,45.96 C152.44667,46.8133376 152.8,47.973326 152.8,49.44 C152.8,50.77334 152.526669,52.0199942 151.98,53.18 C151.433331,54.3400058 150.666672,55.2933296 149.68,56.04 C148.93333,56.6266696 148.040005,57.0466654 147,57.3 C145.959995,57.5533346 144.680008,57.68 143.16,57.68 L130.04,57.68 L134.28,31 Z M138.4,51.04 C138.346666,51.3600016 138.306667,51.586666 138.28,51.72 C138.253333,51.853334 138.2,52.053332 138.12,52.32 C138.413335,52.2666664 138.626666,52.24 138.76,52.24 L141,52.24 C141.853338,52.24 142.533331,52.1866672 143.04,52.08 C143.546669,51.9733328 143.946665,51.8000012 144.24,51.56 C145.013337,50.9999972 145.4,50.2133384 145.4,49.2 C145.4,48.6933308 145.286668,48.240002 145.06,47.84 C144.833332,47.439998 144.533335,47.1333344 144.16,46.92 C143.946666,46.786666 143.613336,46.686667 143.16,46.62 C142.706664,46.553333 142.200003,46.52 141.64,46.52 L139.16,46.52 L138.4,51.04 Z M140.12,40.08 L140,40.76 C139.973333,40.893334 139.92,41.093332 139.84,41.36 C140.133335,41.3066664 140.346666,41.28 140.48,41.28 L142.52,41.28 C143.293337,41.28 143.846665,41.2400004 144.18,41.16 C144.513335,41.0799996 144.826665,40.8933348 145.12,40.6 C145.626669,40.0933308 145.88,39.4533372 145.88,38.68 C145.88,37.213326 144.973342,36.48 143.16,36.48 L140.72,36.48 L140.12,40.08 Z M169.28,31 L178.2,31 L183.84,57.68 L176.52,57.68 L175.52,52.4 L166.04,52.4 L163.68,57.68 L155.6,57.68 L169.28,31 Z M170.2,46.48 L173.76,46.48 C173.946668,46.48 174.213332,46.5066664 174.56,46.56 C174.453333,46.2133316 174.38,45.9533342 174.34,45.78 C174.3,45.6066658 174.253334,45.3333352 174.2,44.96 L173.64,41.72 C173.533333,41.0799968 173.446667,40.5466688 173.38,40.12 C173.313333,39.6933312 173.26,39.280002 173.22,38.88 C173.18,38.479998 173.153333,38.0600022 173.14,37.62 C173.126667,37.1799978 173.106667,36.6533364 173.08,36.04 L172.84,36 C172.653332,36.6400032 172.493334,37.1866644 172.36,37.64 C172.226666,38.0933356 172.093334,38.519998 171.96,38.92 C171.826666,39.320002 171.666668,39.7333312 171.48,40.16 C171.293332,40.5866688 171.066668,41.1066636 170.8,41.72 L169.96,43.6 C169.826666,43.9200016 169.713334,44.1933322 169.62,44.42 C169.526666,44.6466678 169.433334,44.8666656 169.34,45.08 C169.246666,45.2933344 169.146667,45.5133322 169.04,45.74 C168.933333,45.9666678 168.800001,46.2399984 168.64,46.56 C169.30667,46.5066664 169.826665,46.48 170.2,46.48 Z M202.4,57.68 L199.64,52.04 C199.346665,51.4266636 199.100001,50.9066688 198.9,50.48 C198.699999,50.0533312 198.520001,49.6533352 198.36,49.28 C198.199999,48.9066648 198.046667,48.5066688 197.9,48.08 C197.753333,47.6533312 197.573334,47.1333364 197.36,46.52 L197.16,46.56 C197.133333,47.2000032 197.106667,47.7466644 197.08,48.2 C197.053333,48.6533356 197.013334,49.0866646 196.96,49.5 C196.906666,49.9133354 196.846667,50.3466644 196.78,50.8 C196.713333,51.2533356 196.626667,51.81333 196.52,52.48 L195.68,57.68 L188.48,57.68 L192.76,31 L201.84,31 C208.320032,31 211.56,33.6399736 211.56,38.92 C211.56,41.186678 210.946673,43.0399928 209.72,44.48 C208.493327,45.9200072 206.746678,46.8266648 204.48,47.2 C204.613334,47.4133344 204.72,47.586666 204.8,47.72 L205.08,48.12 C205.186667,48.253334 205.286666,48.3999992 205.38,48.56 C205.473334,48.7200008 205.586666,48.9199988 205.72,49.16 L210.72,57.68 L202.4,57.68 Z M198.36,41.08 C198.306666,41.3733348 198.26,41.5933326 198.22,41.74 C198.18,41.8866674 198.12,42.093332 198.04,42.36 C198.333335,42.3066664 198.546666,42.28 198.68,42.28 L200.64,42.28 C202.826678,42.28 203.92,41.3333428 203.92,39.44 C203.92,37.8933256 203.040009,37.12 201.28,37.12 L198.96,37.12 L198.36,41.08 Z M219.88,31 L227.12,31 L226.24,36.4 C226.133333,37.0933368 226.040001,37.673331 225.96,38.14 C225.88,38.606669 225.793334,39.0466646 225.7,39.46 C225.606666,39.8733354 225.500001,40.2999978 225.38,40.74 C225.26,41.1800022 225.120001,41.7199968 224.96,42.36 L225.16,42.44 C225.560002,41.9333308 225.893332,41.5000018 226.16,41.14 C226.426668,40.7799982 226.693332,40.4400016 226.96,40.12 C227.226668,39.7999984 227.519999,39.4600018 227.84,39.1 C228.160002,38.7399982 228.546665,38.293336 229,37.76 L234.96,31 L243.68,31 L231.36,44.28 L240.36,57.68 L231.88,57.68 L227.2,50.16 C226.879999,49.6533308 226.613335,49.2200018 226.4,48.86 C226.186666,48.4999982 225.993334,48.1600016 225.82,47.84 C225.646666,47.5199984 225.473334,47.1866684 225.3,46.84 C225.126666,46.4933316 224.920001,46.0666692 224.68,45.56 L224.52,45.56 C224.493333,46.1200028 224.466667,46.599998 224.44,47 C224.413333,47.400002 224.38,47.7799982 224.34,48.14 C224.3,48.5000018 224.246667,48.8866646 224.18,49.3 C224.113333,49.7133354 224.040001,50.2133304 223.96,50.8 L222.84,57.68 L215.64,57.68 L219.88,31 Z M13.46,45.7833211 L18.74,35.2133211 L27.03,40.1233211 C31.15,42.6833211 32.64,46.4033211 32.64,51.2533211 L32.64,57.1433211 L13.46,45.7833211 Z M31.61,39.1933211 L38.7,24.7933211 L45.17,37.1833211 L34.17,43.6833211 C33.6257885,42.0303964 32.7552528,40.5035585 31.61,39.1933211 Z M19.76,25.8833211 C18.59,22.1133211 15.54,18.8833211 10.79,16.2833211 L14.27,9.2833211 L36.12,21.9533211 L28.42,37.3533211 L19.89,32.3533211 C20.449911,30.2266161 20.4048873,27.9858185 19.76,25.8833211 Z M61.67,51.9833211 L61.66,51.9833211 L61.53,51.9833211 L61.53,57.9833211 L35.53,57.9833211 L35.53,51.7233211 C35.6079909,50.0411911 35.4395416,48.3566979 35.03,46.7233211 L48.82,39.2233211 C55.6949141,39.6573069 61.1877052,45.1116271 61.67,51.9833211 Z M16.13,33.6933211 L10.87,44.2433211 L0,37.8033211 L2.64,32.5833211 L9.32,19.1933211 C13.24,21.3733211 15.68,23.9233211 16.59,26.7933211 C17.2621132,29.0748375 17.0990215,31.5212137 16.13,33.6933211 Z M41.73,14.4133211 C42.3487558,14.778665 42.5800985,15.5599924 42.26,16.2033211 L40.82,19.1133211 C40.6507838,19.4559319 40.3461674,19.7123017 39.9796951,19.8205345 C39.6132228,19.9287672 39.2182007,19.8790264 38.89,19.6833211 L14.89,5.4633211 C14.2712442,5.0979772 14.0399015,4.31664978 14.36,3.6733211 L15.8,0.7633211 C15.9692162,0.420710306 16.2738326,0.164340499 16.6403049,0.0561077505 C17.0067772,-0.0521249979 17.4017993,-0.00238419476 17.73,0.1933211 L41.73,14.4133211 Z" id="Combined-Shape"></path>
        </g>
    </g>
</svg>
