<svg xmlns="http://www.w3.org/2000/svg" viewBox="0 0 389 112.47"><defs><style>.cls-1{fill:#fff;}</style></defs><title>showboxLogo</title><g id="Layer_2" data-name="Layer 2"><g id="Layer_1-2" data-name="Layer 1"><polygon points="367.82 0 0 19.28 0 91.29 21.18 112.47 389 112.47 389 21.18 367.82 0"/><path class="cls-1" d="M97,24.57V80.47h37V22.62Zm27,45.91-16,.14V33.11l16-.69Z"/><polygon class="cls-1" points="79 48.42 61 48.99 61 26.45 50 27 50 80.47 61 80.47 60.99 58 79 57.6 79 80.47 90 80.47 90 24.93 79 25.48 79 48.42"/><path class="cls-1" d="M242,43.49V16.94L208,18.7V80.47h43V43.19ZM218,28.73l14-.61V43.7l-14,.43Zm24,40.74-24,.21V54.16l14.19-.31,9.81-.22Z"/><polygon class="cls-1" points="350.41 11.28 338.98 11.88 327.74 35.13 316.69 13.04 305.83 13.61 322.19 46.61 305.83 80.47 316.69 80.47 327.74 57.8 338.98 80.47 350.41 80.47 333.33 46.32 350.41 11.28"/><path class="cls-1" d="M258,16.12V80.47h42V13.93Zm32,53.35-21,.18V26.35l21-.9Z"/><polygon class="cls-1" points="10 29.1 10 58.87 34 58.37 34 71.47 20 71.6 20 62.7 10 62.88 10 80.47 44 80.47 44 49.55 20 50.27 20 37.32 34 36.71 34 45.49 44 45.1 44 27.32 10 29.1"/><polygon class="cls-1" points="193.27 19.46 184.77 60.31 176.01 20.37 164.76 20.96 156.28 60.76 148.32 21.82 138.53 22.33 150.57 80.47 161.97 80.47 170.52 40.59 179.21 80.47 189.32 80.47 202.8 18.96 193.27 19.46"/></g></g></svg>
