<?xml version="1.0" encoding="UTF-8"?>
<svg width="185px" height="45px" viewBox="0 0 185 45" version="1.1" xmlns="http://www.w3.org/2000/svg" xmlns:xlink="http://www.w3.org/1999/xlink">
    <!-- Generator: Sketch 47 (45396) - http://www.bohemiancoding.com/sketch -->
    <title>Vitsky SVG</title>
    <desc>Created with Sketch.</desc>
    <defs></defs>
    <g id="Symbols" stroke="none" stroke-width="1" fill="none" fill-rule="evenodd">
        <path d="M17.3144531,32.28125 L24.4921875,1.34375 L34.1015625,1.34375 L21.796875,44 L12.8320312,44 L0.615234375,1.34375 L10.1660156,1.34375 L17.3144531,32.28125 Z M48.1093749,44 L39.4960936,44 L39.4960936,1.34375 L48.1093749,1.34375 L48.1093749,44 Z M83.1230466,8.52148438 L72.5761716,8.52148438 L72.5761716,44 L63.9335935,44 L63.9335935,8.52148438 L53.5624998,8.52148438 L53.5624998,1.34375 L83.1230466,1.34375 L83.1230466,8.52148438 Z M106.623047,32.8085938 C106.623047,31.0703038 106.178715,29.7568404 105.290039,28.8681641 C104.401362,27.9794877 102.785168,27.0566454 100.441406,26.0996094 C96.1640408,24.4785075 93.0878996,22.5791125 91.2128903,20.4013672 C89.3378809,18.2236219 88.4003903,15.6504055 88.4003903,12.6816406 C88.4003903,9.08787266 89.6747916,6.20215933 92.2236325,4.02441406 C94.7724733,1.8466688 98.0097456,0.7578125 101.935547,0.7578125 C104.552747,0.7578125 106.886708,1.30956479 108.9375,2.41308594 C110.988291,3.51660708 112.565424,5.07420869 113.668945,7.0859375 C114.772466,9.09766631 115.324218,11.3827997 115.324218,13.9414062 L106.740234,13.9414062 C106.740234,11.9492088 106.315434,10.4306693 105.46582,9.38574219 C104.616206,8.34081509 103.390633,7.81835938 101.789062,7.81835938 C100.285148,7.81835938 99.1132851,8.26269087 98.2734371,9.15136719 C97.4335892,10.0400435 97.0136715,11.2363206 97.0136715,12.7402344 C97.0136715,13.9121152 97.4824168,14.971675 98.4199215,15.9189453 C99.3574262,16.8662157 101.017566,17.8476512 103.40039,18.8632812 C107.560567,20.367195 110.582998,22.2128797 112.467773,24.4003906 C114.352548,26.5879016 115.294922,29.3710769 115.294922,32.75 C115.294922,36.4609561 114.113293,39.3613177 111.75,41.4511719 C109.386707,43.5410261 106.173848,44.5859375 102.111328,44.5859375 C99.3574077,44.5859375 96.8476672,44.0195369 94.5820309,42.8867188 C92.3163946,41.7539006 90.5439514,40.132823 89.2646481,38.0234375 C87.9853448,35.914052 87.3457028,33.4238425 87.3457028,30.5527344 L95.9882809,30.5527344 C95.9882809,33.0136842 96.4667917,34.8007757 97.4238278,35.9140625 C98.3808638,37.0273493 99.9433482,37.5839844 102.111328,37.5839844 C105.119155,37.5839844 106.623047,35.9922034 106.623047,32.8085938 Z M134.019531,27.5351562 L130.621093,31.8125 L130.621093,44 L122.007812,44 L122.007812,1.34375 L130.621093,1.34375 L130.621093,19.9472656 L133.345703,15.3476562 L141.285156,1.34375 L151.832031,1.34375 L139.615234,20.09375 L152.037109,44 L141.8125,44 L134.019531,27.5351562 Z M169.062499,20.5039062 L175.478515,1.34375 L184.853515,1.34375 L173.427734,28.53125 L173.427734,44 L164.697265,44 L164.697265,28.53125 L153.242187,1.34375 L162.617187,1.34375 L169.062499,20.5039062 Z" id="Vitsky-SVG" fill="#FF0052"></path>
    </g>
</svg>
