<svg xmlns="http://www.w3.org/2000/svg" viewBox="0 0 518.01 139"><defs><style>.cls-1{fill:#ff6679;}</style></defs><title>voop-logo</title><g id="Layer_2" data-name="Layer 2"><g id="Layer_1-2" data-name="Layer 1"><path class="cls-1" d="M129,.5H8A8,8,0,0,0,.85,12.06l60.5,121.55a8,8,0,0,0,14.32,0l60.5-121.55A8,8,0,0,0,129,.5Z"/><circle class="cls-1" cx="201.51" cy="69" r="69"/><circle class="cls-1" cx="352.51" cy="69" r="69"/><path class="cls-1" d="M441.62.05a4.05,4.05,0,0,0-4.11,4V139h19.73a10.27,10.27,0,0,0,10.27-10.27V107S518,94,518,56.5C518,20.13,490.51.05,441.62.05Z"/></g></g></svg>
