<?xml version="1.0" encoding="utf-8"?>
<!-- Generator: Adobe Illustrator 22.0.1, SVG Export Plug-In . SVG Version: 6.00 Build 0)  -->
<svg version="1.1" xmlns="http://www.w3.org/2000/svg" xmlns:xlink="http://www.w3.org/1999/xlink" x="0px" y="0px"
	 viewBox="0 0 384 180" style="enable-background:new 0 0 384 180;" xml:space="preserve">
<style type="text/css">
	.st0{fill:#44BEA4;}
</style>
<g id="works-Start">
	<title>Line</title>
	<desc>Created with Sketch.</desc>
	<g id="Design-V01">
		<polygon id="Line" class="st0" points="337,86.5 47,86.5 47,93.5 337,93.5 		"/>
	</g>
</g>
<g id="works-one">
	<g id="Design-V01_1_">
		<path id="Line_1_" class="st0" d="M337,37.8C126.1,89,109.7,10.5,68.3,49.8c-22,20.9-31.4,69.8-14,82.7c69,50.8,90.9-40,244-14.3
			C403.7,135.8,403,21.8,337,37.8z"/>
	</g>
</g>
<g id="works-two">
	<g id="Design-V01_2_">
		<path id="Line_2_" class="st0" d="M307,17.8c-168.7,44-183.3-2.7-218.7,32c-21.7,21.3,0.6,80.5,18,93.3c69,50.8,118,32,162-5
			C350.1,69.5,372.7,0.7,307,17.8z"/>
	</g>
</g>
<g id="works-three">
	<g id="Design-V01_3_">
		<path id="Line_3_" class="st0" d="M240.3,18.5c-52-4-112,11.3-123.8,32.7c-14.7,26.6,18,75.9,64.4,72c71.3-6,66,45.3,125.3,34
			C356.7,147.6,295.7,22.8,240.3,18.5z"/>
	</g>
</g>
<g id="works-four">
	<g id="Design-V01_4_">
		<path id="Line_4_" class="st0" d="M201.4,65.2C149.4,61.2,47,46.5,55,93.5c5.1,29.9,90.5,67.6,137,63.7
			c71.3-6,110.7-18.9,136.9-73.3C372.3-6.2,256.7,69.4,201.4,65.2z"/>
	</g>
</g>
<g id="works-five">
	<g id="Design-V01_5_">
		<path id="Line_5_" class="st0" d="M173.7,39.5c-70-36-134.7,6-126.7,53c5.1,29.9,56.9,69.7,103.5,69.9
			c70.5,0.2,205.4-32.2,186.5-89.6C322.3,28.2,224.8,65.8,173.7,39.5z"/>
	</g>
</g>
</svg>
