<?xml version="1.0" encoding="UTF-8"?>
<svg width="122px" height="122px" viewBox="0 0 122 122" version="1.1" xmlns="http://www.w3.org/2000/svg" xmlns:xlink="http://www.w3.org/1999/xlink">
    <!-- Generator: Sketch 52.6 (67491) - http://www.bohemiancoding.com/sketch -->
    <title>design</title>
    <desc>Created with Sketch.</desc>
    <g id="Design-V04" stroke="none" stroke-width="1" fill="none" fill-rule="evenodd">
        <g id="Project:-Watoobi" transform="translate(-1064.000000, -1187.000000)">
            <g id="Process" transform="translate(255.000000, 1100.000000)">
                <g id="design" transform="translate(810.000000, 88.000000)">
                    <circle id="Oval-Copy-6" fill="#FFFFFF" cx="60" cy="60" r="60"></circle>
                    <path d="M70,86 L70,79 L82,79 L82,86 L85,86 L85,34 L35,34 L35,86 L38,86 L38,79 L50,79 L50,86 L54,86 L54,79 L66,79 L66,86 L70,86 Z M33,32 L87,32 L87,88 L33,88 L33,32 Z M40,81 L40,86 L48,86 L48,81 L40,81 Z M56,81 L56,86 L64,86 L64,81 L56,81 Z M72,81 L72,86 L80,86 L80,81 L72,81 Z M40,65.9494038 L57.6961048,56.932788 L40,47.9161723 L40,65.9494038 Z M42.3434673,67 L77.4541208,67 L59.898794,58.0551143 L42.3434673,67 Z M80,47.8130383 L62.1014833,56.932788 L80,66.0525378 L80,47.8130383 Z M77.1902989,47 L42.6072892,47 L59.898794,55.8104618 L77.1902989,47 Z M38,45 L82,45 L82,69 L38,69 L38,45 Z M38,39 L62,39 L62,41 L38,41 L38,39 Z M38,73 L54,73 L54,75 L38,75 L38,73 Z" id="Combined-Shape" fill="#FF0052" fill-rule="nonzero"></path>
                    <circle id="Oval-Copy-6" stroke="#FF0052" stroke-width="2" cx="60" cy="60" r="60"></circle>
                </g>
            </g>
        </g>
    </g>
</svg>
