<?xml version="1.0" encoding="UTF-8"?>
<svg width="122px" height="122px" viewBox="0 0 122 122" version="1.1" xmlns="http://www.w3.org/2000/svg" xmlns:xlink="http://www.w3.org/1999/xlink">
    <!-- Generator: Sketch 52.6 (67491) - http://www.bohemiancoding.com/sketch -->
    <title>strategy</title>
    <desc>Created with Sketch.</desc>
    <g id="Design-V04" stroke="none" stroke-width="1" fill="none" fill-rule="evenodd">
        <g id="Project:-Watoobi" transform="translate(-254.000000, -1187.000000)">
            <g id="Process" transform="translate(255.000000, 1100.000000)">
                <g id="strategy" transform="translate(0.000000, 88.000000)">
                    <circle id="Oval-Copy-7" fill="#FFFFFF" cx="60" cy="60" r="60"></circle>
                    <path d="M71,79 L49,79 L46,79 L46,87 L74,87 L74,79 L71,79 Z M51.0039024,79 L50.8789024,79 L51.0039024,79 Z M49.125,77 L50.875,49 L44,49 L44,31 L52,31 L52,37 L56,37 L56,31 L64,31 L64,37 L68,37 L68,31 L76,31 L76,49 L69.125,49 L70.875,77 L76,77 L76,89 L44,89 L44,77 L49.125,77 Z M51.1289024,77 L68.8710976,77 L67.1210976,49 L52.8789024,49 L51.1289024,77 Z M51,47 L69,47 L74,47 L74,33 L70,33 L70,39 L62,39 L62,33 L58,33 L58,39 L50,39 L50,33 L46,33 L46,47 L51,47 Z" id="Combined-Shape" fill="#FF0052" fill-rule="nonzero"></path>
                    <circle id="Oval" stroke="#FF0052" stroke-width="2" cx="60" cy="60" r="60"></circle>
                </g>
            </g>
        </g>
    </g>
</svg>
