<?xml version="1.0" encoding="utf-8"?>
<!-- Generator: Adobe Illustrator 22.0.1, SVG Export Plug-In . SVG Version: 6.00 Build 0)  -->
<svg version="1.1" id="Layer_1" xmlns="http://www.w3.org/2000/svg" xmlns:xlink="http://www.w3.org/1999/xlink" x="0px" y="0px"
	 viewBox="0 0 257 28" style="enable-background:new 0 0 257 28;" xml:space="preserve">
<style type="text/css">
	.st0{clip-path:url(#SVGID_2_);fill:#FFFFFF;}
</style>
<title>Video Sandbox Copy</title>
<desc>Created with Sketch.</desc>
<g id="Symbols">
</g>
<g>
	<defs>
		<path id="SVGID_1_" d="M239.8,17.3l-3.8-9.7h9.1l1.5,5.4l1.5-5.4h8.4l-3.4,9.5l3.3,9.7h-9.2l-1.5-4.8l-1.3,4.8h-8.4L239.8,17.3z
			 M224.2,19.8c0.2,0.5,0.6,0.7,1.2,0.7c0.6,0,1-0.2,1.2-0.7c0.2-0.5,0.3-1.3,0.3-2.5c0-1.2-0.1-2.1-0.3-2.5
			c-0.2-0.5-0.6-0.7-1.2-0.7c-0.6,0-1,0.2-1.2,0.7c-0.2,0.5-0.3,1.3-0.3,2.5C223.8,18.5,223.9,19.3,224.2,19.8z M217.7,9.6
			c1.7-1.6,4.2-2.4,7.6-2.4s5.9,0.8,7.6,2.4c1.7,1.6,2.5,4.2,2.5,7.7s-0.8,6.1-2.5,7.7c-1.7,1.6-4.2,2.4-7.6,2.4s-5.9-0.8-7.6-2.4
			c-1.7-1.6-2.5-4.1-2.5-7.7S216.1,11.1,217.7,9.6z M203.8,20.5c1.1,0,1.7-1.1,1.7-3.3c0-1.2-0.1-2-0.4-2.4
			c-0.3-0.4-0.7-0.6-1.3-0.6l-1.2,0.3v6C202.9,20.4,203.3,20.5,203.8,20.5z M206.5,7.2c5,0,7.5,3.3,7.5,9.8c0,3.9-0.7,6.6-2.2,8.1
			c-1.5,1.5-4.2,2.3-8.2,2.3c-1.6,0-4.2-0.2-7.9-0.6l-1.7-0.2V0.6h8.5v7.1C204.3,7.4,205.6,7.2,206.5,7.2z M182.3,14
			c-0.7,0-1.1,0.3-1.3,0.8s-0.3,1.3-0.3,2.4c0,1,0.1,1.8,0.3,2.4c0.2,0.6,0.7,0.8,1.4,0.8l1.2-0.1v-6.2
			C182.9,14.1,182.5,14,182.3,14z M192,0.6v26.2h-8.4l-0.1-0.8c-1.4,0.9-2.7,1.3-4,1.3c-2.8,0-4.7-0.9-5.9-2.6
			c-1.1-1.7-1.7-4.2-1.7-7.5c0-6.7,2.8-10.1,8.4-10.1l3.1,0.2V0.6H192z M159,26.8h-8.5V7.7h8.5v1c1.6-1,3-1.5,4.2-1.5
			c2.7,0,4.6,0.7,5.7,2.2c1.1,1.5,1.6,4.1,1.6,7.8v9.6H162v-9c0-2.2-0.5-3.3-1.4-3.3l-1.6,0.3V26.8z M138,21.5c0.5,0,1-0.2,1.4-0.6
			v-1.4l-1.3,0.1c-0.7,0.1-1,0.4-1,1C137.1,21.2,137.4,21.5,138,21.5z M147.9,13.8v7.2c0.2,0.2,0.5,0.3,0.9,0.4l-0.1,5.4
			c-2,0.3-3.3,0.5-4.1,0.5s-1.4-0.1-2-0.3c-0.6-0.2-1-0.4-1.2-0.7l-0.3-0.3c-1.6,0.9-3.5,1.3-5.7,1.3c-2.2,0-3.9-0.5-5.1-1.5
			s-1.7-2.7-1.7-5s0.6-3.8,1.9-4.6c1.3-0.8,3.3-1.2,6.1-1.3l2.7-0.1v-0.3c0-0.5-0.5-0.7-1.6-0.7c-2.3,0-4.6,0.1-6.9,0.4l-1.3,0.1
			l-0.2-5.8c3.3-0.9,6.4-1.3,9.2-1.3c2.9,0,5.1,0.4,6.7,1.3C147.1,9.4,147.9,11.2,147.9,13.8z M126.8,8.7c-3.6-0.4-6.2-0.6-7.8-0.6
			s-2.6,0-2.8,0.1c-0.3,0.1-0.4,0.3-0.4,0.6s0.2,0.5,0.5,0.6s1.3,0.4,2.9,0.8c1.6,0.4,2.9,0.7,4,1c1,0.3,2,0.8,2.8,1.4
			c0.8,0.6,1.4,1.4,1.6,2.3c0.3,0.9,0.4,2.1,0.4,3.6c0,3.1-0.8,5.4-2.5,6.7c-1.7,1.3-4.2,2-7.6,2c-1.6,0-3.3-0.1-5.1-0.3
			c-1.8-0.2-3.2-0.5-4.1-0.7l-1.5-0.3l0.4-6.7c3.9,0.6,7.1,0.8,9.5,0.8c1.3,0,2-0.3,2-0.9c0-0.3-0.2-0.4-0.5-0.6
			c-0.3-0.1-1.1-0.3-2.5-0.5c-3.5-0.6-6-1.4-7.2-2.6c-1.3-1.2-1.9-3.1-1.9-5.8c0-3.4,0.8-5.8,2.5-7s4.2-1.9,7.6-1.9
			c2.4,0,5.2,0.2,8.5,0.7l1.6,0.3L126.8,8.7z M86.2,19.8c0.2,0.5,0.6,0.7,1.2,0.7c0.6,0,1-0.2,1.2-0.7c0.2-0.5,0.3-1.3,0.3-2.5
			c0-1.2-0.1-2.1-0.3-2.5C88.4,14.3,88,14,87.4,14c-0.6,0-1,0.2-1.2,0.7c-0.2,0.5-0.3,1.3-0.3,2.5C85.8,18.5,86,19.3,86.2,19.8z
			 M79.8,9.6C81.5,8,84,7.2,87.4,7.2c3.4,0,5.9,0.8,7.6,2.4c1.7,1.6,2.5,4.2,2.5,7.7S96.7,23.4,95,25c-1.7,1.6-4.2,2.4-7.6,2.4
			c-3.4,0-5.9-0.8-7.6-2.4c-1.7-1.6-2.5-4.1-2.5-7.7S78.1,11.1,79.8,9.6z M67.6,15.1c0-0.7-0.1-1.3-0.3-1.6
			c-0.2-0.3-0.6-0.5-1.1-0.5s-0.9,0.2-1.1,0.5c-0.2,0.3-0.3,0.8-0.3,1.6H67.6z M64.8,19.7c0,0.9,0.6,1.3,1.7,1.3
			c2.5,0,5.1-0.1,7.6-0.2l1.5-0.1l0.2,5.5c-3.4,0.7-6.7,1.1-10.1,1.1S60,26.6,58.5,25c-1.5-1.5-2.2-4-2.2-7.4c0-3.4,0.8-6,2.4-7.8
			c1.6-1.8,4.1-2.6,7.5-2.6s5.9,0.7,7.5,2.2s2.5,3.7,2.5,6.7l-0.4,3.8H64.8z M44.9,14c-0.7,0-1.1,0.3-1.3,0.8
			c-0.2,0.6-0.3,1.3-0.3,2.4c0,1,0.1,1.8,0.3,2.4c0.2,0.6,0.7,0.8,1.4,0.8l1.2-0.1v-6.2C45.6,14.1,45.2,14,44.9,14z M54.6,0.6v26.2
			h-8.4L46.2,26c-1.4,0.9-2.7,1.3-4,1.3c-2.8,0-4.7-0.9-5.9-2.6c-1.1-1.7-1.7-4.2-1.7-7.5c0-6.7,2.8-10.1,8.4-10.1l3.1,0.2V0.6H54.6
			z M24.4,6.4V0.6H33v5.8H24.4z M24.5,26.8V7.7H33v19.2H24.5z M23.6,1.4l-5,25.5h-13L0.4,1.4h9.3l2,16.6h0.7l1.8-16.6H23.6z"/>
	</defs>
	<clipPath id="SVGID_2_">
		<use xlink:href="#SVGID_1_"  style="overflow:visible;"/>
	</clipPath>
	<rect x="-4.6" y="-4.4" class="st0" width="266.2" height="36.8"/>
</g>
</svg>
