<?xml version="1.0" encoding="UTF-8"?>
<svg width="16px" height="16px" viewBox="0 0 16 16" version="1.1" xmlns="http://www.w3.org/2000/svg" xmlns:xlink="http://www.w3.org/1999/xlink">
    <!-- Generator: Sketch 47.1 (45422) - http://www.bohemiancoding.com/sketch -->
    <title>Icons / Style</title>
    <desc>Created with Sketch.</desc>
    <defs></defs>
    <g id="Symbols" stroke="none" stroke-width="1" fill="none" fill-rule="evenodd">
        <g id="Icons-/-Style" fill="#5975FF">
            <path d="M10.1257482,8.85826485 L9.43083199,0.460646855 C9.3659026,-0.381379542 8.86196451,-1.65985348 8.01743844,-1.65985348 C7.17284503,-1.65985348 6.67734476,-0.371673461 6.61215866,0.470400648 L5.78273152,8.85826485 L10.1257482,8.85826485 Z M10.2084998,9.85826485 L10.2504332,10.3650035 C10.3487416,11.6399006 9.39492803,12.7531036 8.12003093,12.851412 C8.06080642,12.8559789 8.00142809,12.8582648 7.94202776,12.8582648 C6.6632551,12.8582648 5.62685923,11.821869 5.62685923,10.5434099 C5.62685923,10.4837893 5.62916258,10.4241911 5.63376412,10.3647483 L5.68384733,9.85826485 L10.2084998,9.85826485 Z M7.31033166,19.55335 C7.80130131,17.3077335 5.8961181,16.1778968 5.8961181,15.3107093 C5.8961181,13.9299974 6.65045093,13.2968533 8.0311628,13.2968533 C9.41187468,13.2968533 10.1387588,13.9299974 10.1387588,15.3107093 C10.1387588,16.6914211 8.61405979,18.3229911 7.31033166,19.55335 Z" id="Combined-Shape" transform="translate(7.942129, 8.946748) rotate(45.000000) translate(-7.942129, -8.946748) "></path>
        </g>
    </g>
</svg>
